<?xml version="1.0" encoding="UTF-8" standalone="no"?>
<!DOCTYPE svg PUBLIC "-//W3C//DTD SVG 1.1//EN"
 "http://www.w3.org/Graphics/SVG/1.1/DTD/svg11.dtd">
<!-- Generated by graphviz version 2.43.0 (0)
 -->
<!-- Title: %3 Pages: 1 -->
<svg width="1716pt" height="720pt"
 viewBox="0.00 0.00 1716.00 719.64" xmlns="http://www.w3.org/2000/svg" xmlns:xlink="http://www.w3.org/1999/xlink">
<g id="graph0" class="graph" transform="scale(1 1) rotate(0) translate(18 701.64)">
<title>%3</title>
<polygon fill="white" stroke="transparent" points="-18,18 -18,-701.64 1698,-701.64 1698,18 -18,18"/>
<text text-anchor="middle" x="840" y="-666.84" font-family="Helvetica,sans-Serif" font-weight="bold" font-size="16.00">Custom Controller Plugin : Per&#45;Timestep Loop (custom_controller.py)</text>
<g id="clust1" class="cluster">
<title>cluster_m</title>
<path fill="#e7f0fa" fill-opacity="0.333333" stroke="#8a887f" d="M67,-170.64C67,-170.64 317,-170.64 317,-170.64 323,-170.64 329,-176.64 329,-182.64 329,-182.64 329,-632.14 329,-632.14 329,-638.14 323,-644.14 317,-644.14 317,-644.14 67,-644.14 67,-644.14 61,-644.14 55,-638.14 55,-632.14 55,-632.14 55,-182.64 55,-182.64 55,-176.64 61,-170.64 67,-170.64"/>
<text text-anchor="middle" x="192" y="-631.34" font-family="Helvetica,sans-Serif" font-weight="bold" font-size="11.00">Master &#160;· &#160;run_custom_controller_scenario</text>
</g>
<g id="clust2" class="cluster">
<title>cluster_ctl</title>
<path fill="#fbe9df" fill-opacity="0.333333" stroke="#8a887f" d="M1315,-515.64C1315,-515.64 1660,-515.64 1660,-515.64 1666,-515.64 1672,-521.64 1672,-527.64 1672,-527.64 1672,-632.14 1672,-632.14 1672,-638.14 1666,-644.14 1660,-644.14 1660,-644.14 1315,-644.14 1315,-644.14 1309,-644.14 1303,-638.14 1303,-632.14 1303,-632.14 1303,-527.64 1303,-527.64 1303,-521.64 1309,-515.64 1315,-515.64"/>
<text text-anchor="middle" x="1487.5" y="-631.34" font-family="Helvetica,sans-Serif" font-weight="bold" font-size="11.00">Pluggable controller &#160;(SW mirror OR HW firmware)</text>
</g>
<g id="clust3" class="cluster">
<title>cluster_s</title>
<path fill="#edf5e4" fill-opacity="0.333333" stroke="#8a887f" d="M349,-570.64C349,-570.64 885,-570.64 885,-570.64 891,-570.64 897,-576.64 897,-582.64 897,-582.64 897,-637.64 897,-637.64 897,-643.64 891,-649.64 885,-649.64 885,-649.64 349,-649.64 349,-649.64 343,-649.64 337,-643.64 337,-637.64 337,-637.64 337,-582.64 337,-582.64 337,-576.64 343,-570.64 349,-570.64"/>
<text text-anchor="middle" x="617" y="-636.84" font-family="Helvetica,sans-Serif" font-weight="bold" font-size="11.00">Python sub&#45;modules</text>
</g>
<g id="clust4" class="cluster">
<title>cluster_solv</title>
<path fill="#f1efe9" fill-opacity="0.333333" stroke="#8a887f" d="M1089,-576.14C1089,-576.14 1283,-576.14 1283,-576.14 1289,-576.14 1295,-582.14 1295,-588.14 1295,-588.14 1295,-632.14 1295,-632.14 1295,-638.14 1289,-644.14 1283,-644.14 1283,-644.14 1089,-644.14 1089,-644.14 1083,-644.14 1077,-638.14 1077,-632.14 1077,-632.14 1077,-588.14 1077,-588.14 1077,-582.14 1083,-576.14 1089,-576.14"/>
<text text-anchor="middle" x="1186" y="-631.34" font-family="Helvetica,sans-Serif" font-weight="bold" font-size="11.00">Solver</text>
</g>
<g id="clust5" class="cluster">
<title>cluster_pub</title>
<path fill="#eae7f6" fill-opacity="0.333333" stroke="#8a887f" d="M917,-581.14C917,-581.14 1057,-581.14 1057,-581.14 1063,-581.14 1069,-587.14 1069,-593.14 1069,-593.14 1069,-627.14 1069,-627.14 1069,-633.14 1063,-639.14 1057,-639.14 1057,-639.14 917,-639.14 917,-639.14 911,-639.14 905,-633.14 905,-627.14 905,-627.14 905,-593.14 905,-593.14 905,-587.14 911,-581.14 917,-581.14"/>
<text text-anchor="middle" x="987" y="-626.34" font-family="Helvetica,sans-Serif" font-weight="bold" font-size="11.00">Publisher</text>
</g>
<g id="clust6" class="cluster">
<title>cluster_legend</title>
<path fill="#ffffff" stroke="#8a887f" d="M156,-8C156,-8 190,-8 190,-8 196,-8 202,-14 202,-20 202,-20 202,-150.64 202,-150.64 202,-156.64 196,-162.64 190,-162.64 190,-162.64 156,-162.64 156,-162.64 150,-162.64 144,-156.64 144,-150.64 144,-150.64 144,-20 144,-20 144,-14 150,-8 156,-8"/>
<text text-anchor="middle" x="173" y="-150.64" font-family="Helvetica,sans-Serif" font-weight="bold" font-size="10.00">Legend</text>
</g>
<!-- A -->
<g id="node1" class="node">
<title>A</title>
<path fill="#e7f0fa" stroke="#8a887f" d="M234.33,-616.14C234.33,-616.14 111.67,-616.14 111.67,-616.14 106.33,-616.14 101,-610.81 101,-605.47 101,-605.47 101,-594.81 101,-594.81 101,-589.47 106.33,-584.14 111.67,-584.14 111.67,-584.14 234.33,-584.14 234.33,-584.14 239.67,-584.14 245,-589.47 245,-594.81 245,-594.81 245,-605.47 245,-605.47 245,-610.81 239.67,-616.14 234.33,-616.14"/>
<text text-anchor="start" x="110" y="-603.14" font-family="Helvetica,sans-Serif" font-size="10.00">[A] p_target = ap.der_p[t]</text>
<text text-anchor="middle" x="173" y="-592.14" font-family="Helvetica,sans-Serif" font-size="10.00">(ctrl.sgen_indices order)</text>
</g>
<!-- B -->
<g id="node2" class="node">
<title>B</title>
<path fill="#e7f0fa" stroke="#8a887f" d="M227.17,-550.64C227.17,-550.64 118.83,-550.64 118.83,-550.64 115.17,-550.64 111.5,-546.97 111.5,-543.31 111.5,-543.31 111.5,-535.97 111.5,-535.97 111.5,-532.31 115.17,-528.64 118.83,-528.64 118.83,-528.64 227.17,-528.64 227.17,-528.64 230.83,-528.64 234.5,-532.31 234.5,-535.97 234.5,-535.97 234.5,-543.31 234.5,-543.31 234.5,-546.97 230.83,-550.64 227.17,-550.64"/>
<text text-anchor="middle" x="173" y="-537.14" font-family="Helvetica,sans-Serif" font-size="10.00">[B] write net.load P/Q</text>
</g>
<!-- A&#45;&gt;B -->
<g id="edge1" class="edge">
<title>A&#45;&gt;B</title>
<path fill="none" stroke="#1b1b1a" stroke-width="2" d="M173,-583.93C173,-583.93 173,-558.23 173,-558.23"/>
<polygon fill="#1b1b1a" stroke="#1b1b1a" stroke-width="2" points="175.63,-558.23 173,-550.73 170.38,-558.23 175.63,-558.23"/>
</g>
<!-- C -->
<g id="node3" class="node">
<title>C</title>
<path fill="#e7f0fa" stroke="#8a887f" d="M251.67,-500.64C251.67,-500.64 94.33,-500.64 94.33,-500.64 90.67,-500.64 87,-496.97 87,-493.31 87,-493.31 87,-485.97 87,-485.97 87,-482.31 90.67,-478.64 94.33,-478.64 94.33,-478.64 251.67,-478.64 251.67,-478.64 255.33,-478.64 259,-482.31 259,-485.97 259,-485.97 259,-493.31 259,-493.31 259,-496.97 255.33,-500.64 251.67,-500.64"/>
<text text-anchor="middle" x="173" y="-487.14" font-family="Helvetica,sans-Serif" font-size="10.00">[0&#45;1] net.sgen P=p_target, Q=0</text>
</g>
<!-- B&#45;&gt;C -->
<g id="edge2" class="edge">
<title>B&#45;&gt;C</title>
<path fill="none" stroke="#1b1b1a" stroke-width="2" d="M173,-528.54C173,-528.54 173,-508.21 173,-508.21"/>
<polygon fill="#1b1b1a" stroke="#1b1b1a" stroke-width="2" points="175.63,-508.21 173,-500.71 170.38,-508.21 175.63,-508.21"/>
</g>
<!-- D -->
<g id="node4" class="node">
<title>D</title>
<path fill="#e7f0fa" stroke="#8a887f" d="M233.17,-455.64C233.17,-455.64 112.83,-455.64 112.83,-455.64 109.17,-455.64 105.5,-451.97 105.5,-448.31 105.5,-448.31 105.5,-440.97 105.5,-440.97 105.5,-437.31 109.17,-433.64 112.83,-433.64 112.83,-433.64 233.17,-433.64 233.17,-433.64 236.83,-433.64 240.5,-437.31 240.5,-440.97 240.5,-440.97 240.5,-448.31 240.5,-448.31 240.5,-451.97 236.83,-455.64 233.17,-455.64"/>
<text text-anchor="middle" x="173" y="-442.14" font-family="Helvetica,sans-Serif" font-size="10.00">[2] pre&#45;PF &#45;&gt; report_pre</text>
</g>
<!-- C&#45;&gt;D -->
<g id="edge3" class="edge">
<title>C&#45;&gt;D</title>
<path fill="none" stroke="#1b1b1a" stroke-width="2" d="M173,-478.28C173,-478.28 173,-463.34 173,-463.34"/>
<polygon fill="#1b1b1a" stroke="#1b1b1a" stroke-width="2" points="175.63,-463.34 173,-455.84 170.38,-463.34 175.63,-463.34"/>
</g>
<!-- G -->
<g id="node5" class="node">
<title>G</title>
<path fill="#fcf5d6" stroke="#8a887f" d="M245.83,-410.64C245.83,-410.64 100.17,-410.64 100.17,-410.64 94.83,-410.64 89.5,-405.31 89.5,-399.97 89.5,-399.97 89.5,-389.31 89.5,-389.31 89.5,-383.97 94.83,-378.64 100.17,-378.64 100.17,-378.64 245.83,-378.64 245.83,-378.64 251.17,-378.64 256.5,-383.97 256.5,-389.31 256.5,-389.31 256.5,-399.97 256.5,-399.97 256.5,-405.31 251.17,-410.64 245.83,-410.64"/>
<text text-anchor="start" x="98.5" y="-397.64" font-family="Helvetica,sans-Serif" font-size="10.00">gate (opt&#45;in): clean &#45;&gt;</text>
<text text-anchor="middle" x="173" y="-386.64" font-family="Helvetica,sans-Serif" font-size="10.00">hold Q=0, record, skip post&#45;PF</text>
</g>
<!-- D&#45;&gt;G -->
<g id="edge4" class="edge">
<title>D&#45;&gt;G</title>
<path fill="none" stroke="#1b1b1a" stroke-width="2" d="M173,-433.54C173,-433.54 173,-418.33 173,-418.33"/>
<polygon fill="#1b1b1a" stroke="#1b1b1a" stroke-width="2" points="175.63,-418.33 173,-410.83 170.38,-418.33 175.63,-418.33"/>
</g>
<!-- pp -->
<g id="node16" class="node">
<title>pp</title>
<path fill="#f1efe9" stroke="#8a887f" d="M1276.83,-616.14C1276.83,-616.14 1095.17,-616.14 1095.17,-616.14 1089.83,-616.14 1084.5,-610.81 1084.5,-605.47 1084.5,-605.47 1084.5,-594.81 1084.5,-594.81 1084.5,-589.47 1089.83,-584.14 1095.17,-584.14 1095.17,-584.14 1276.83,-584.14 1276.83,-584.14 1282.17,-584.14 1287.5,-589.47 1287.5,-594.81 1287.5,-594.81 1287.5,-605.47 1287.5,-605.47 1287.5,-610.81 1282.17,-616.14 1276.83,-616.14"/>
<text text-anchor="start" x="1093.5" y="-603.14" font-family="Helvetica,sans-Serif" font-size="10.00">pandapower runpp (Newton&#45;Raphson)</text>
<text text-anchor="middle" x="1186" y="-592.14" font-family="Helvetica,sans-Serif" font-size="10.00">voltage_depend_loads=False</text>
</g>
<!-- D&#45;&gt;pp -->
<g id="edge17" class="edge">
<title>D&#45;&gt;pp</title>
<path fill="none" stroke="#1b1b1a" stroke-width="2" d="M240.64,-440C467.33,-440 1186,-440 1186,-440 1186,-440 1186,-576.4 1186,-576.4"/>
<polygon fill="#1b1b1a" stroke="#1b1b1a" stroke-width="2" points="1183.38,-576.4 1186,-583.9 1188.63,-576.4 1183.38,-576.4"/>
<text text-anchor="middle" x="774.52" y="-442.2" font-family="Helvetica,sans-Serif" font-size="8.50">pre</text>
</g>
<!-- Ee -->
<g id="node6" class="node">
<title>Ee</title>
<path fill="#e7f0fa" stroke="#8a887f" d="M272.33,-355.64C272.33,-355.64 73.67,-355.64 73.67,-355.64 68.33,-355.64 63,-350.31 63,-344.97 63,-344.97 63,-334.31 63,-334.31 63,-328.97 68.33,-323.64 73.67,-323.64 73.67,-323.64 272.33,-323.64 272.33,-323.64 277.67,-323.64 283,-328.97 283,-334.31 283,-334.31 283,-344.97 283,-344.97 283,-350.31 277.67,-355.64 272.33,-355.64"/>
<text text-anchor="start" x="72" y="-342.64" font-family="Helvetica,sans-Serif" font-size="10.00">[3] controller_fn(vm_pu, p_installed) &#45;&gt; q</text>
<text text-anchor="middle" x="173" y="-331.64" font-family="Helvetica,sans-Serif" font-size="10.00">optional _clamp_to_net_limits</text>
</g>
<!-- G&#45;&gt;Ee -->
<g id="edge5" class="edge">
<title>G&#45;&gt;Ee</title>
<path fill="none" stroke="#1b1b1a" stroke-width="2" d="M173,-378.44C173,-378.44 173,-363.42 173,-363.42"/>
<polygon fill="#1b1b1a" stroke="#1b1b1a" stroke-width="2" points="175.63,-363.42 173,-355.92 170.38,-363.42 175.63,-363.42"/>
<text text-anchor="middle" x="154.5" y="-364.13" font-family="Helvetica,sans-Serif" font-size="8.50">violation</text>
</g>
<!-- Ii -->
<g id="node9" class="node">
<title>Ii</title>
<path fill="#e7f0fa" stroke="#8a887f" d="M264.83,-210.64C264.83,-210.64 81.17,-210.64 81.17,-210.64 75.83,-210.64 70.5,-205.31 70.5,-199.97 70.5,-199.97 70.5,-189.31 70.5,-189.31 70.5,-183.97 75.83,-178.64 81.17,-178.64 81.17,-178.64 264.83,-178.64 264.83,-178.64 270.17,-178.64 275.5,-183.97 275.5,-189.31 275.5,-189.31 275.5,-199.97 275.5,-199.97 275.5,-205.31 270.17,-210.64 264.83,-210.64"/>
<text text-anchor="start" x="79.5" y="-197.64" font-family="Helvetica,sans-Serif" font-size="10.00">[F] make_record_from_report + fields;</text>
<text text-anchor="middle" x="173" y="-186.64" font-family="Helvetica,sans-Serif" font-size="10.00">publish; append; next t</text>
</g>
<!-- G&#45;&gt;Ii -->
<g id="edge6" class="edge">
<title>G&#45;&gt;Ii</title>
<path fill="none" stroke="#1b1b1a" stroke-width="2" stroke-dasharray="5,2" d="M89.27,-394C67.98,-394 51,-394 51,-394 51,-394 51,-199 51,-199 51,-199 62.83,-199 62.83,-199"/>
<polygon fill="#1b1b1a" stroke="#1b1b1a" stroke-width="2" points="62.83,-201.63 70.33,-199 62.83,-196.38 62.83,-201.63"/>
<text text-anchor="middle" x="25.5" y="-311.92" font-family="Helvetica,sans-Serif" font-size="8.50">clean (gate)</text>
</g>
<!-- Ff -->
<g id="node7" class="node">
<title>Ff</title>
<path fill="#e7f0fa" stroke="#8a887f" d="M234.17,-300.64C234.17,-300.64 111.83,-300.64 111.83,-300.64 108.17,-300.64 104.5,-296.97 104.5,-293.31 104.5,-293.31 104.5,-285.97 104.5,-285.97 104.5,-282.31 108.17,-278.64 111.83,-278.64 111.83,-278.64 234.17,-278.64 234.17,-278.64 237.83,-278.64 241.5,-282.31 241.5,-285.97 241.5,-285.97 241.5,-293.31 241.5,-293.31 241.5,-296.97 237.83,-300.64 234.17,-300.64"/>
<text text-anchor="middle" x="173" y="-287.14" font-family="Helvetica,sans-Serif" font-size="10.00">[4] net.sgen.q_mvar = q</text>
</g>
<!-- Ee&#45;&gt;Ff -->
<g id="edge7" class="edge">
<title>Ee&#45;&gt;Ff</title>
<path fill="none" stroke="#1b1b1a" stroke-width="2" d="M173,-323.54C173,-323.54 173,-308.3 173,-308.3"/>
<polygon fill="#1b1b1a" stroke="#1b1b1a" stroke-width="2" points="175.63,-308.3 173,-300.8 170.38,-308.3 175.63,-308.3"/>
</g>
<!-- sw -->
<g id="node10" class="node">
<title>sw</title>
<path fill="#edf5e4" stroke="#8a887f" d="M1653.33,-616.14C1653.33,-616.14 1504.67,-616.14 1504.67,-616.14 1499.33,-616.14 1494,-610.81 1494,-605.47 1494,-605.47 1494,-594.81 1494,-594.81 1494,-589.47 1499.33,-584.14 1504.67,-584.14 1504.67,-584.14 1653.33,-584.14 1653.33,-584.14 1658.67,-584.14 1664,-589.47 1664,-594.81 1664,-594.81 1664,-605.47 1664,-605.47 1664,-610.81 1658.67,-616.14 1653.33,-616.14"/>
<text text-anchor="start" x="1503" y="-603.14" font-family="Helvetica,sans-Serif" font-size="10.00">controller_fn (plugin Python fn)</text>
<text text-anchor="middle" x="1579" y="-592.14" font-family="Helvetica,sans-Serif" font-size="10.00">researcher Q(V) algorithm</text>
</g>
<!-- Ee&#45;&gt;sw -->
<g id="edge11" class="edge">
<title>Ee&#45;&gt;sw</title>
<path fill="none" stroke="#1f6fb2" stroke-width="1.25" stroke-dasharray="5,2" d="M283.2,-334C613.67,-334 1573.67,-334 1573.67,-334 1573.67,-334 1573.67,-577.39 1573.67,-577.39"/>
<polygon fill="#1f6fb2" stroke="#1f6fb2" stroke-width="1.25" points="1571.39,-577.39 1573.67,-583.89 1575.94,-577.39 1571.39,-577.39"/>
<text text-anchor="middle" x="1026.13" y="-336.2" font-family="Helvetica,sans-Serif" font-size="8.50" fill="#1f6fb2">vm, p (SW)</text>
</g>
<!-- hw -->
<g id="node11" class="node">
<title>hw</title>
<path fill="#fbe9df" stroke="#8a887f" d="M1466.33,-616.14C1466.33,-616.14 1321.67,-616.14 1321.67,-616.14 1316.33,-616.14 1311,-610.81 1311,-605.47 1311,-605.47 1311,-594.81 1311,-594.81 1311,-589.47 1316.33,-584.14 1321.67,-584.14 1321.67,-584.14 1466.33,-584.14 1466.33,-584.14 1471.67,-584.14 1477,-589.47 1477,-594.81 1477,-594.81 1477,-605.47 1477,-605.47 1477,-610.81 1471.67,-616.14 1466.33,-616.14"/>
<text text-anchor="start" x="1320" y="-603.14" font-family="Helvetica,sans-Serif" font-size="10.00">HardwareControllerFn</text>
<text text-anchor="middle" x="1394" y="-592.14" font-family="Helvetica,sans-Serif" font-size="10.00">exchange_batched &#45;&gt; Arduino</text>
</g>
<!-- Ee&#45;&gt;hw -->
<g id="edge12" class="edge">
<title>Ee&#45;&gt;hw</title>
<path fill="none" stroke="#d8641e" stroke-width="1.7" stroke-dasharray="1,5" d="M283.17,-344C565.95,-344 1295.33,-344 1295.33,-344 1295.33,-344 1295.33,-594 1295.33,-594 1295.33,-594 1304.25,-594 1304.25,-594"/>
<polygon fill="#d8641e" stroke="#d8641e" stroke-width="1.7" points="1304.25,-596.28 1310.75,-594 1304.25,-591.73 1304.25,-596.28"/>
<text text-anchor="middle" x="894.21" y="-346.2" font-family="Helvetica,sans-Serif" font-size="8.50" fill="#b94f0c">vm, p (HW)</text>
</g>
<!-- m1 -->
<g id="node13" class="node">
<title>m1</title>
<path fill="#fbeff4" stroke="#8a887f" d="M877.5,-621.64C877.5,-621.64 734.5,-621.64 734.5,-621.64 728.5,-621.64 722.5,-615.64 722.5,-609.64 722.5,-609.64 722.5,-590.64 722.5,-590.64 722.5,-584.64 728.5,-578.64 734.5,-578.64 734.5,-578.64 877.5,-578.64 877.5,-578.64 883.5,-578.64 889.5,-584.64 889.5,-590.64 889.5,-590.64 889.5,-609.64 889.5,-609.64 889.5,-615.64 883.5,-621.64 877.5,-621.64"/>
<text text-anchor="start" x="731.5" y="-608.64" font-family="Helvetica,sans-Serif" font-size="10.00">VoltVarController (dry&#45;run)</text>
<text text-anchor="start" x="731.5" y="-597.64" font-family="Helvetica,sans-Serif" font-size="10.00">DER indices/buses/p_installed;</text>
<text text-anchor="middle" x="806" y="-586.64" font-family="Helvetica,sans-Serif" font-size="10.00">_clamp_to_net_limits</text>
</g>
<!-- Ee&#45;&gt;m1 -->
<g id="edge20" class="edge">
<title>Ee&#45;&gt;m1</title>
<path fill="none" stroke="#1b1b1a" stroke-width="2" d="M283.24,-350C471.25,-350 833.83,-350 833.83,-350 833.83,-350 833.83,-570.88 833.83,-570.88"/>
<polygon fill="#1b1b1a" stroke="#1b1b1a" stroke-width="2" points="831.21,-570.88 833.83,-578.38 836.46,-570.88 831.21,-570.88"/>
<text text-anchor="middle" x="655.97" y="-352.2" font-family="Helvetica,sans-Serif" font-size="8.50">clamp</text>
</g>
<!-- Hh -->
<g id="node8" class="node">
<title>Hh</title>
<path fill="#e7f0fa" stroke="#8a887f" d="M238.17,-255.64C238.17,-255.64 107.83,-255.64 107.83,-255.64 104.17,-255.64 100.5,-251.97 100.5,-248.31 100.5,-248.31 100.5,-240.97 100.5,-240.97 100.5,-237.31 104.17,-233.64 107.83,-233.64 107.83,-233.64 238.17,-233.64 238.17,-233.64 241.83,-233.64 245.5,-237.31 245.5,-240.97 245.5,-240.97 245.5,-248.31 245.5,-248.31 245.5,-251.97 241.83,-255.64 238.17,-255.64"/>
<text text-anchor="middle" x="173" y="-242.14" font-family="Helvetica,sans-Serif" font-size="10.00">[5] post&#45;PF &#45;&gt; report_post</text>
</g>
<!-- Ff&#45;&gt;Hh -->
<g id="edge8" class="edge">
<title>Ff&#45;&gt;Hh</title>
<path fill="none" stroke="#1b1b1a" stroke-width="2" d="M173,-278.28C173,-278.28 173,-263.34 173,-263.34"/>
<polygon fill="#1b1b1a" stroke="#1b1b1a" stroke-width="2" points="175.63,-263.34 173,-255.84 170.38,-263.34 175.63,-263.34"/>
</g>
<!-- Hh&#45;&gt;Ii -->
<g id="edge9" class="edge">
<title>Hh&#45;&gt;Ii</title>
<path fill="none" stroke="#1b1b1a" stroke-width="2" d="M173,-233.54C173,-233.54 173,-218.33 173,-218.33"/>
<polygon fill="#1b1b1a" stroke="#1b1b1a" stroke-width="2" points="175.63,-218.33 173,-210.83 170.38,-218.33 175.63,-218.33"/>
</g>
<!-- Hh&#45;&gt;pp -->
<g id="edge18" class="edge">
<title>Hh&#45;&gt;pp</title>
<path fill="none" stroke="#1b1b1a" stroke-width="2" d="M245.7,-240C485.57,-240 1236.75,-240 1236.75,-240 1236.75,-240 1236.75,-576.23 1236.75,-576.23"/>
<polygon fill="#1b1b1a" stroke="#1b1b1a" stroke-width="2" points="1234.13,-576.23 1236.75,-583.73 1239.38,-576.23 1234.13,-576.23"/>
<text text-anchor="middle" x="899.84" y="-242.2" font-family="Helvetica,sans-Serif" font-size="8.50">post</text>
</g>
<!-- Ii&#45;&gt;A -->
<g id="edge10" class="edge">
<title>Ii&#45;&gt;A</title>
<path fill="none" stroke="#1b1b1a" stroke-width="2" d="M70.42,-189C52.25,-189 39,-189 39,-189 39,-189 39,-600 39,-600 39,-600 93.4,-600 93.4,-600"/>
<polygon fill="#1b1b1a" stroke="#1b1b1a" stroke-width="2" points="93.4,-602.63 100.9,-600 93.4,-597.38 93.4,-602.63"/>
<text text-anchor="middle" x="26.5" y="-408.19" font-family="Helvetica,sans-Serif" font-size="8.50">next t</text>
</g>
<!-- m3 -->
<g id="node15" class="node">
<title>m3</title>
<path fill="#edf5e4" stroke="#8a887f" d="M520.83,-616.14C520.83,-616.14 355.17,-616.14 355.17,-616.14 349.83,-616.14 344.5,-610.81 344.5,-605.47 344.5,-605.47 344.5,-594.81 344.5,-594.81 344.5,-589.47 349.83,-584.14 355.17,-584.14 355.17,-584.14 520.83,-584.14 520.83,-584.14 526.17,-584.14 531.5,-589.47 531.5,-594.81 531.5,-594.81 531.5,-605.47 531.5,-605.47 531.5,-610.81 526.17,-616.14 520.83,-616.14"/>
<text text-anchor="start" x="353.5" y="-603.14" font-family="Helvetica,sans-Serif" font-size="10.00">make_record_from_report</text>
<text text-anchor="middle" x="438" y="-592.14" font-family="Helvetica,sans-Serif" font-size="10.00">+ losses / grid_import / t_total_ms</text>
</g>
<!-- Ii&#45;&gt;m3 -->
<g id="edge21" class="edge">
<title>Ii&#45;&gt;m3</title>
<path fill="none" stroke="#1b1b1a" stroke-width="2" d="M275.84,-199C350.32,-199 438,-199 438,-199 438,-199 438,-576.42 438,-576.42"/>
<polygon fill="#1b1b1a" stroke="#1b1b1a" stroke-width="2" points="435.38,-576.42 438,-583.92 440.63,-576.42 435.38,-576.42"/>
</g>
<!-- pb -->
<g id="node17" class="node">
<title>pb</title>
<path fill="#eae7f6" stroke="#8a887f" d="M1053.67,-611.14C1053.67,-611.14 920.33,-611.14 920.33,-611.14 916.67,-611.14 913,-607.47 913,-603.81 913,-603.81 913,-596.47 913,-596.47 913,-592.81 916.67,-589.14 920.33,-589.14 920.33,-589.14 1053.67,-589.14 1053.67,-589.14 1057.33,-589.14 1061,-592.81 1061,-596.47 1061,-596.47 1061,-603.81 1061,-603.81 1061,-607.47 1057.33,-611.14 1053.67,-611.14"/>
<text text-anchor="middle" x="987" y="-597.64" font-family="Helvetica,sans-Serif" font-size="10.00">on_timestep &#45;&gt; live JSONL</text>
</g>
<!-- Ii&#45;&gt;pb -->
<g id="edge22" class="edge">
<title>Ii&#45;&gt;pb</title>
<path fill="none" stroke="#1b1b1a" stroke-width="2" d="M275.68,-189C494.51,-189 987,-189 987,-189 987,-189 987,-581.21 987,-581.21"/>
<polygon fill="#1b1b1a" stroke="#1b1b1a" stroke-width="2" points="984.38,-581.21 987,-588.71 989.63,-581.21 984.38,-581.21"/>
</g>
<!-- le1 -->
<g id="node18" class="node">
<title>le1</title>
<ellipse fill="#ffffff" stroke="#ffffff" cx="173" cy="-136.92" rx="0.72" ry="0.72"/>
</g>
<!-- Ii&#45;&gt;le1 -->
<!-- sw&#45;&gt;Ee -->
<g id="edge15" class="edge">
<title>sw&#45;&gt;Ee</title>
<path fill="none" stroke="#1f6fb2" stroke-width="1.25" stroke-dasharray="5,2" d="M1618.83,-583.93C1618.83,-525.34 1618.83,-328 1618.83,-328 1618.83,-328 289.66,-328 289.66,-328"/>
<polygon fill="#1f6fb2" stroke="#1f6fb2" stroke-width="1.25" points="289.66,-325.73 283.16,-328 289.66,-330.28 289.66,-325.73"/>
<text text-anchor="middle" x="1079.21" y="-330.2" font-family="Helvetica,sans-Serif" font-size="8.50" fill="#1f6fb2">q</text>
</g>
<!-- hw&#45;&gt;Ee -->
<g id="edge16" class="edge">
<title>hw&#45;&gt;Ee</title>
<path fill="none" stroke="#1f6fb2" stroke-width="1.25" stroke-dasharray="5,2" d="M1310.91,-605C1306.1,-605 1303.17,-605 1303.17,-605 1303.17,-605 1303.17,-339 1303.17,-339 1303.17,-339 289.66,-339 289.66,-339"/>
<polygon fill="#1f6fb2" stroke="#1f6fb2" stroke-width="1.25" points="289.66,-336.73 283.16,-339 289.66,-341.28 289.66,-336.73"/>
<text text-anchor="middle" x="930.29" y="-341.2" font-family="Helvetica,sans-Serif" font-size="8.50" fill="#1f6fb2">q</text>
</g>
<!-- ard -->
<g id="node12" class="node">
<title>ard</title>
<path fill="#fbe9df" stroke="#8a887f" d="M1517.83,-555.64C1517.83,-555.64 1322.17,-555.64 1322.17,-555.64 1316.83,-555.64 1311.5,-550.31 1311.5,-544.97 1311.5,-544.97 1311.5,-534.31 1311.5,-534.31 1311.5,-528.97 1316.83,-523.64 1322.17,-523.64 1322.17,-523.64 1517.83,-523.64 1517.83,-523.64 1523.17,-523.64 1528.5,-528.97 1528.5,-534.31 1528.5,-534.31 1528.5,-544.97 1528.5,-544.97 1528.5,-550.31 1523.17,-555.64 1517.83,-555.64"/>
<text text-anchor="start" x="1320.5" y="-542.64" font-family="Helvetica,sans-Serif" font-size="10.00">Arduino firmware (researcher&#39;s own .ino)</text>
<text text-anchor="middle" x="1420" y="-531.64" font-family="Helvetica,sans-Serif" font-size="10.00">V: &#45;&gt; compute Q &#45;&gt; Q:</text>
</g>
<!-- hw&#45;&gt;ard -->
<g id="edge13" class="edge">
<title>hw&#45;&gt;ard</title>
<path fill="none" stroke="#d8641e" stroke-width="1.7" stroke-dasharray="1,5" d="M1366.67,-583.93C1366.67,-583.93 1366.67,-562.4 1366.67,-562.4"/>
<polygon fill="#d8641e" stroke="#d8641e" stroke-width="1.7" points="1368.94,-562.4 1366.67,-555.9 1364.39,-562.4 1368.94,-562.4"/>
<text text-anchor="middle" x="1355.17" y="-575.36" font-family="Helvetica,sans-Serif" font-size="8.50" fill="#b94f0c">V: TX</text>
</g>
<!-- ard&#45;&gt;hw -->
<g id="edge14" class="edge">
<title>ard&#45;&gt;hw</title>
<path fill="none" stroke="#d8641e" stroke-width="1.7" stroke-dasharray="1,5" d="M1421.83,-555.85C1421.83,-555.85 1421.83,-577.38 1421.83,-577.38"/>
<polygon fill="#d8641e" stroke="#d8641e" stroke-width="1.7" points="1419.56,-577.38 1421.83,-583.88 1424.11,-577.38 1419.56,-577.38"/>
<text text-anchor="middle" x="1409.33" y="-568.82" font-family="Helvetica,sans-Serif" font-size="8.50" fill="#b94f0c">Q: RX</text>
</g>
<!-- m1&#45;&gt;A -->
<g id="edge25" class="edge">
<title>m1&#45;&gt;A</title>
<path fill="none" stroke="#1f6fb2" stroke-width="1.25" stroke-dasharray="5,2" d="M778.17,-578.56C778.17,-573.73 778.17,-570 778.17,-570 778.17,-570 239.75,-570 239.75,-570 239.75,-570 239.75,-577.51 239.75,-577.51"/>
<polygon fill="#1f6fb2" stroke="#1f6fb2" stroke-width="1.25" points="237.48,-577.51 239.75,-584.01 242.03,-577.51 237.48,-577.51"/>
<text text-anchor="middle" x="456.48" y="-572.2" font-family="Helvetica,sans-Serif" font-size="8.50" fill="#1f6fb2">sgen_indices, p_installed</text>
</g>
<!-- m2 -->
<g id="node14" class="node">
<title>m2</title>
<path fill="#eeedfe" stroke="#8a887f" d="M694.33,-616.14C694.33,-616.14 559.67,-616.14 559.67,-616.14 554.33,-616.14 549,-610.81 549,-605.47 549,-605.47 549,-594.81 549,-594.81 549,-589.47 554.33,-584.14 559.67,-584.14 559.67,-584.14 694.33,-584.14 694.33,-584.14 699.67,-584.14 705,-589.47 705,-594.81 705,-594.81 705,-605.47 705,-605.47 705,-610.81 699.67,-616.14 694.33,-616.14"/>
<text text-anchor="start" x="558" y="-603.14" font-family="Helvetica,sans-Serif" font-size="10.00">detect_violations</text>
<text text-anchor="middle" x="627" y="-592.14" font-family="Helvetica,sans-Serif" font-size="10.00">V band + line / trafo loading</text>
</g>
<!-- m2&#45;&gt;D -->
<g id="edge23" class="edge">
<title>m2&#45;&gt;D</title>
<path fill="none" stroke="#1f6fb2" stroke-width="1.25" stroke-dasharray="5,2" d="M588,-583.86C588,-544.61 588,-448 588,-448 588,-448 247.1,-448 247.1,-448"/>
<polygon fill="#1f6fb2" stroke="#1f6fb2" stroke-width="1.25" points="247.1,-445.73 240.6,-448 247.1,-450.28 247.1,-445.73"/>
<text text-anchor="middle" x="463.48" y="-450.2" font-family="Helvetica,sans-Serif" font-size="8.50" fill="#1f6fb2">report_pre</text>
</g>
<!-- m2&#45;&gt;Hh -->
<g id="edge24" class="edge">
<title>m2&#45;&gt;Hh</title>
<path fill="none" stroke="#1f6fb2" stroke-width="1.25" stroke-dasharray="5,2" d="M627,-584.09C627,-515.21 627,-248 627,-248 627,-248 252.19,-248 252.19,-248"/>
<polygon fill="#1f6fb2" stroke="#1f6fb2" stroke-width="1.25" points="252.19,-245.73 245.69,-248 252.19,-250.28 252.19,-245.73"/>
<text text-anchor="middle" x="583.14" y="-250.2" font-family="Helvetica,sans-Serif" font-size="8.50" fill="#1f6fb2">report_post</text>
</g>
<!-- pp&#45;&gt;m2 -->
<g id="edge19" class="edge">
<title>pp&#45;&gt;m2</title>
<path fill="none" stroke="#1b1b1a" stroke-width="2" d="M1135.25,-583.74C1135.25,-573.79 1135.25,-563 1135.25,-563 1135.25,-563 666,-563 666,-563 666,-563 666,-576.24 666,-576.24"/>
<polygon fill="#1b1b1a" stroke="#1b1b1a" stroke-width="2" points="663.38,-576.24 666,-583.74 668.63,-576.24 663.38,-576.24"/>
</g>
<!-- le2 -->
<g id="node19" class="node">
<title>le2</title>
<ellipse fill="#ffffff" stroke="#ffffff" cx="173" cy="-112.48" rx="0.72" ry="0.72"/>
</g>
<!-- le1&#45;&gt;le2 -->
<g id="edge26" class="edge">
<title>le1&#45;&gt;le2</title>
<path fill="none" stroke="#1b1b1a" stroke-width="2" d="M173,-135.87C173,-135.87 173,-120.79 173,-120.79"/>
<polygon fill="#1b1b1a" stroke="#1b1b1a" stroke-width="2" points="175.63,-120.79 173,-113.29 170.38,-120.79 175.63,-120.79"/>
<text text-anchor="middle" x="152.5" y="-121.53" font-family="Helvetica,sans-Serif" font-size="8.50">execution</text>
</g>
<!-- ld1 -->
<g id="node20" class="node">
<title>ld1</title>
<ellipse fill="#ffffff" stroke="#ffffff" cx="173" cy="-88.04" rx="0.72" ry="0.72"/>
</g>
<!-- le2&#45;&gt;ld1 -->
<!-- ld2 -->
<g id="node21" class="node">
<title>ld2</title>
<ellipse fill="#ffffff" stroke="#ffffff" cx="173" cy="-63.6" rx="0.72" ry="0.72"/>
</g>
<!-- ld1&#45;&gt;ld2 -->
<g id="edge27" class="edge">
<title>ld1&#45;&gt;ld2</title>
<path fill="none" stroke="#1f6fb2" stroke-width="1.25" stroke-dasharray="5,2" d="M173,-86.99C173,-86.99 173,-70.91 173,-70.91"/>
<polygon fill="#1f6fb2" stroke="#1f6fb2" stroke-width="1.25" points="175.28,-70.91 173,-64.41 170.73,-70.91 175.28,-70.91"/>
<text text-anchor="middle" x="142" y="-81.15" font-family="Helvetica,sans-Serif" font-size="8.50" fill="#1f6fb2">data (array/df)</text>
</g>
<!-- lh1 -->
<g id="node22" class="node">
<title>lh1</title>
<ellipse fill="#ffffff" stroke="#ffffff" cx="173" cy="-39.16" rx="0.72" ry="0.72"/>
</g>
<!-- ld2&#45;&gt;lh1 -->
<!-- lh2 -->
<g id="node23" class="node">
<title>lh2</title>
<ellipse fill="#ffffff" stroke="#ffffff" cx="173" cy="-14.72" rx="0.72" ry="0.72"/>
</g>
<!-- lh1&#45;&gt;lh2 -->
<g id="edge29" class="edge">
<title>lh1&#45;&gt;lh2</title>
<path fill="none" stroke="#d8641e" stroke-width="1.7" stroke-dasharray="1,5" d="M173,-38.11C173,-38.11 173,-22.03 173,-22.03"/>
<polygon fill="#d8641e" stroke="#d8641e" stroke-width="1.7" points="175.28,-22.03 173,-15.53 170.73,-22.03 175.28,-22.03"/>
<text text-anchor="middle" x="146.5" y="-23.27" font-family="Helvetica,sans-Serif" font-size="8.50" fill="#b94f0c">serial TX/RX</text>
</g>
</g>
</svg>
