<svg xmlns="http://www.w3.org/2000/svg" xmlns:xlink="http://www.w3.org/1999/xlink" contentStyleType="text/css" height="1126px" preserveAspectRatio="none" style="width:1264px;height:1126px;background:#FFFFFF;" version="1.1" viewBox="0 0 1264 1126" width="1264px" zoomAndPan="magnify"><defs/><g><rect fill="none" height="12.8047" style="stroke:none;stroke-width:1.0;" width="1231.9834" x="15" y="11.0942"/><ellipse cx="172.8506" cy="38.8989" fill="#222222" rx="10" ry="10" style="stroke:#222222;stroke-width:1.0;"/><rect fill="#F1F1F1" height="45.6094" rx="12.5" ry="12.5" style="stroke:#878787;stroke-width:0.5;" width="221.5449" x="62.0781" y="68.8989"/><text fill="#000000" font-family="Helvetica" font-size="11" lengthAdjust="spacing" textLength="186.1245" x="72.0781" y="89.1094">run_scenario_4(net, profiles, port,</text><text fill="#000000" font-family="Helvetica" font-size="11" lengthAdjust="spacing" textLength="201.5449" x="72.0781" y="101.9141">dry_run, coordination, v_min/v_max)</text><rect fill="#F1F1F1" height="45.6094" rx="12.5" ry="12.5" style="stroke:#878787;stroke-width:0.5;" width="214.3906" x="65.6553" y="134.5083"/><text fill="#000000" font-family="Helvetica" font-size="11" lengthAdjust="spacing" textLength="104.6128" x="75.6553" y="154.7188">adapt_profiles(net)</text><text fill="#000000" font-family="Helvetica" font-size="11" lengthAdjust="spacing" textLength="194.3906" x="75.6553" y="167.5234">-&gt; ap : DER P, load P/Q, times, dt_s</text><rect fill="#F1F1F1" height="45.6094" rx="12.5" ry="12.5" style="stroke:#878787;stroke-width:0.5;" width="137.2671" x="104.217" y="265.7271"/><text fill="#000000" font-family="Helvetica" font-size="11" lengthAdjust="spacing" textLength="117.2671" x="114.217" y="285.9375">drop stale controllers</text><text fill="#000000" font-family="Helvetica" font-size="11" lengthAdjust="spacing" textLength="97.3296" x="114.217" y="298.7422">reset_results(net)</text><rect fill="#F1F1F1" height="58.4141" rx="12.5" ry="12.5" style="stroke:#878787;stroke-width:0.5;" width="303.7012" x="21" y="331.3364"/><text fill="#000000" font-family="Helvetica" font-size="11" lengthAdjust="spacing" textLength="136.6406" x="31" y="351.5469">construct control objects</text><text fill="#000000" font-family="Helvetica" font-size="11" lengthAdjust="spacing" textLength="283.7012" x="31" y="364.3516">VoltVarController(...) resolves DER idx / buses / MW</text><text fill="#000000" font-family="Helvetica" font-size="11" lengthAdjust="spacing" textLength="228.4756" x="31" y="377.1563">+ SensitivityCoordinator + DERDynamics</text><polygon fill="#F1F1F1" points="148.9412,409.7505,196.76,409.7505,208.76,421.7505,196.76,433.7505,148.9412,433.7505,136.9412,421.7505,148.9412,409.7505" style="stroke:#878787;stroke-width:0.5;"/><text fill="#000000" font-family="Helvetica" font-size="11" lengthAdjust="spacing" textLength="47.8188" x="148.9412" y="425.5586">dry_run?</text><text fill="#000000" font-family="Helvetica" font-size="11" lengthAdjust="spacing" textLength="42.3081" x="94.6331" y="419.1563">no - HIL</text><text fill="#000000" font-family="Helvetica" font-size="11" lengthAdjust="spacing" textLength="70.4204" x="208.76" y="419.1563">yes - dry-run</text><rect fill="#F1F1F1" height="45.6094" rx="12.5" ry="12.5" style="stroke:#878787;stroke-width:0.5;" width="242.3525" x="186.8829" y="453.7505"/><text fill="#000000" font-family="Helvetica" font-size="11" lengthAdjust="spacing" textLength="117.9063" x="196.8829" y="473.9609">configure() is a no-op</text><text fill="#000000" font-family="Helvetica" font-size="11" lengthAdjust="spacing" textLength="222.3525" x="196.8829" y="486.7656">Q computed locally via QVCharacteristic</text><polygon fill="#F1F1F1" points="172.8506,574.9692,184.8506,586.9692,172.8506,598.9692,160.8506,586.9692,172.8506,574.9692" style="stroke:#878787;stroke-width:0.5;"/><rect fill="#F1F1F1" height="45.6094" rx="12.5" ry="12.5" style="stroke:#878787;stroke-width:0.5;" width="183.2275" x="81.2368" y="618.9692"/><text fill="#000000" font-family="Helvetica" font-size="11" lengthAdjust="spacing" textLength="92.936" x="91.2368" y="639.1797">dynamics.reset()</text><text fill="#000000" font-family="Helvetica" font-size="11" lengthAdjust="spacing" textLength="163.2275" x="91.2368" y="651.9844">seed q_prev=0, p_prev=P[t0]</text><rect fill="#F1F1F1" height="45.6094" rx="12.5" ry="12.5" style="stroke:#878787;stroke-width:0.5;" width="124.876" x="110.4126" y="684.5786"/><line style="stroke:#878787;stroke-width:1.0;" x1="110.4126" x2="120.4126" y1="700.981" y2="700.981"/><line style="stroke:#878787;stroke-width:1.0;" x1="110.4126" x2="120.4126" y1="702.981" y2="702.981"/><text fill="#000000" font-family="Helvetica" font-size="11" lengthAdjust="spacing" textLength="97.8828" x="123.9092" y="704.2891">per-timestep loop</text><line style="stroke:#878787;stroke-width:1.0;" x1="225.2886" x2="235.2886" y1="700.981" y2="700.981"/><line style="stroke:#878787;stroke-width:1.0;" x1="225.2886" x2="235.2886" y1="702.981" y2="702.981"/><text fill="#000000" font-family="Helvetica" font-size="11" lengthAdjust="spacing" textLength="66.3062" x="120.4126" y="717.5938">(Diagram 2)</text><polygon fill="#F1F1F1" points="148.9412,750.188,196.76,750.188,208.76,762.188,196.76,774.188,148.9412,774.188,136.9412,762.188,148.9412,750.188" style="stroke:#878787;stroke-width:0.5;"/><text fill="#000000" font-family="Helvetica" font-size="11" lengthAdjust="spacing" textLength="42.3081" x="176.8506" y="784.3984">no - HIL</text><text fill="#000000" font-family="Helvetica" font-size="11" lengthAdjust="spacing" textLength="47.8188" x="148.9412" y="765.9961">dry_run?</text><text fill="#000000" font-family="Helvetica" font-size="11" lengthAdjust="spacing" textLength="70.4204" x="66.5208" y="759.5938">yes - dry-run</text><polygon fill="#F1F1F1" points="172.8506,864.1997,184.8506,876.1997,172.8506,888.1997,160.8506,876.1997,172.8506,864.1997" style="stroke:#878787;stroke-width:0.5;"/><rect fill="#F1F1F1" height="32.8047" rx="12.5" ry="12.5" style="stroke:#878787;stroke-width:0.5;" width="139.8667" x="102.9172" y="1039.4185"/><text fill="#000000" font-family="Helvetica" font-size="11" lengthAdjust="spacing" textLength="119.8667" x="112.9172" y="1059.6289">return ScenarioResult</text><ellipse cx="172.8506" cy="1103.2231" fill="none" rx="11" ry="11" style="stroke:#222222;stroke-width:1.0;"/><ellipse cx="172.8506" cy="1103.2231" fill="#222222" rx="6" ry="6" style="stroke:#222222;stroke-width:1.0;"/><line style="stroke:#000000;stroke-width:1.5;" x1="15" x2="15" y1="11.0942" y2="1114.2231"/><rect fill="#F1F1F1" height="45.6094" rx="12.5" ry="12.5" style="stroke:#878787;stroke-width:0.5;" width="175.9175" x="439.2355" y="200.1177"/><text fill="#000000" font-family="Helvetica" font-size="11" lengthAdjust="spacing" textLength="96.8892" x="449.2355" y="220.3281">on_scenario_start</text><text fill="#000000" font-family="Helvetica" font-size="11" lengthAdjust="spacing" textLength="155.9175" x="449.2355" y="233.1328">write topology, open stream</text><rect fill="#F1F1F1" height="45.6094" rx="12.5" ry="12.5" style="stroke:#878787;stroke-width:0.5;" width="138.1211" x="458.1337" y="973.8091"/><text fill="#000000" font-family="Helvetica" font-size="11" lengthAdjust="spacing" textLength="91.9907" x="468.1337" y="994.0195">on_scenario_end</text><text fill="#000000" font-family="Helvetica" font-size="11" lengthAdjust="spacing" textLength="118.1211" x="468.1337" y="1006.8242">flush summary frame</text><line style="stroke:#000000;stroke-width:1.5;" x1="433.2355" x2="433.2355" y1="11.0942" y2="1114.2231"/><rect fill="#F1F1F1" height="45.6094" rx="12.5" ry="12.5" style="stroke:#878787;stroke-width:0.5;" width="190.5215" x="659.1332" y="453.7505"/><text fill="#000000" font-family="Helvetica" font-size="11" lengthAdjust="spacing" textLength="170.5215" x="669.1332" y="473.9609">open() /dev/ttyACM0 @115200</text><text fill="#000000" font-family="Helvetica" font-size="11" lengthAdjust="spacing" textLength="152.8613" x="669.1332" y="486.7656">capacitor reset, flush buffer</text><rect fill="#F1F1F1" height="45.6094" rx="12.5" ry="12.5" style="stroke:#878787;stroke-width:0.5;" width="258.4819" x="625.153" y="519.3599"/><text fill="#000000" font-family="Helvetica" font-size="11" lengthAdjust="spacing" textLength="222.4116" x="635.153" y="539.5703">configure(): handshake INIT -&gt; CFG -&gt; P</text><text fill="#000000" font-family="Helvetica" font-size="11" lengthAdjust="spacing" textLength="238.4819" x="635.153" y="552.375">(see sequence diagram); configured = true</text><rect fill="#F1F1F1" height="45.6094" rx="12.5" ry="12.5" style="stroke:#878787;stroke-width:0.5;" width="236.3101" x="771.4475" y="798.5903"/><text fill="#000000" font-family="Helvetica" font-size="11" lengthAdjust="spacing" textLength="98.4951" x="781.4475" y="818.8008">close() -&gt; TX END</text><text fill="#000000" font-family="Helvetica" font-size="11" lengthAdjust="spacing" textLength="216.3101" x="781.4475" y="831.6055">firmware clears configured, port closed</text><line style="stroke:#000000;stroke-width:1.5;" x1="619.153" x2="619.153" y1="11.0942" y2="1114.2231"/><rect fill="#F1F1F1" height="45.6094" rx="12.5" ry="12.5" style="stroke:#878787;stroke-width:0.5;" width="224.4775" x="1017.7576" y="908.1997"/><text fill="#000000" font-family="Helvetica" font-size="11" lengthAdjust="spacing" textLength="167.0249" x="1027.7576" y="928.4102">ScenarioResult.from_records()</text><text fill="#000000" font-family="Helvetica" font-size="11" lengthAdjust="spacing" textLength="204.4775" x="1027.7576" y="941.2148">reduce per-step records -&gt; summary</text><line style="stroke:#000000;stroke-width:1.5;" x1="1011.7576" x2="1011.7576" y1="11.0942" y2="1114.2231"/><line style="stroke:#000000;stroke-width:1.5;" x1="1246.2351" x2="1246.2351" y1="11.0942" y2="1114.2231"/><line style="stroke:#1A1A1A;stroke-width:1.0;" x1="172.8506" x2="172.8506" y1="48.8989" y2="68.8989"/><polygon fill="#1A1A1A" points="168.8506,58.8989,172.8506,68.8989,176.8506,58.8989,172.8506,62.8989" style="stroke:#1A1A1A;stroke-width:1.0;"/><line style="stroke:#1A1A1A;stroke-width:1.0;" x1="172.8506" x2="172.8506" y1="114.5083" y2="134.5083"/><polygon fill="#1A1A1A" points="168.8506,124.5083,172.8506,134.5083,176.8506,124.5083,172.8506,128.5083" style="stroke:#1A1A1A;stroke-width:1.0;"/><line style="stroke:#1A1A1A;stroke-width:1.0;" x1="172.8506" x2="172.8506" y1="311.3364" y2="331.3364"/><polygon fill="#1A1A1A" points="168.8506,321.3364,172.8506,331.3364,176.8506,321.3364,172.8506,325.3364" style="stroke:#1A1A1A;stroke-width:1.0;"/><line style="stroke:#1A1A1A;stroke-width:1.0;" x1="208.76" x2="308.0592" y1="421.7505" y2="421.7505"/><line style="stroke:#1A1A1A;stroke-width:1.0;" x1="308.0592" x2="308.0592" y1="421.7505" y2="453.7505"/><polygon fill="#1A1A1A" points="304.0592,443.7505,308.0592,453.7505,312.0592,443.7505,308.0592,447.7505" style="stroke:#1A1A1A;stroke-width:1.0;"/><line style="stroke:#1A1A1A;stroke-width:1.0;" x1="308.0592" x2="308.0592" y1="499.3599" y2="586.9692"/><line style="stroke:#1A1A1A;stroke-width:1.0;" x1="308.0592" x2="184.8506" y1="586.9692" y2="586.9692"/><polygon fill="#1A1A1A" points="194.8506,582.9692,184.8506,586.9692,194.8506,590.9692,190.8506,586.9692" style="stroke:#1A1A1A;stroke-width:1.0;"/><line style="stroke:#1A1A1A;stroke-width:1.0;" x1="172.8506" x2="172.8506" y1="389.7505" y2="409.7505"/><polygon fill="#1A1A1A" points="168.8506,399.7505,172.8506,409.7505,176.8506,399.7505,172.8506,403.7505" style="stroke:#1A1A1A;stroke-width:1.0;"/><line style="stroke:#1A1A1A;stroke-width:1.0;" x1="172.8506" x2="172.8506" y1="598.9692" y2="618.9692"/><polygon fill="#1A1A1A" points="168.8506,608.9692,172.8506,618.9692,176.8506,608.9692,172.8506,612.9692" style="stroke:#1A1A1A;stroke-width:1.0;"/><line style="stroke:#1A1A1A;stroke-width:1.0;" x1="172.8506" x2="172.8506" y1="664.5786" y2="684.5786"/><polygon fill="#1A1A1A" points="168.8506,674.5786,172.8506,684.5786,176.8506,674.5786,172.8506,678.5786" style="stroke:#1A1A1A;stroke-width:1.0;"/><line style="stroke:#1A1A1A;stroke-width:1.0;" x1="136.9412" x2="44.6956" y1="762.188" y2="762.188"/><polygon fill="#1A1A1A" points="40.6956,811.395,44.6956,821.395,48.6956,811.395,44.6956,815.395" style="stroke:#1A1A1A;stroke-width:1.0;"/><line style="stroke:#1A1A1A;stroke-width:1.0;" x1="44.6956" x2="44.6956" y1="762.188" y2="876.1997"/><line style="stroke:#1A1A1A;stroke-width:1.0;" x1="44.6956" x2="160.8506" y1="876.1997" y2="876.1997"/><polygon fill="#1A1A1A" points="150.8506,872.1997,160.8506,876.1997,150.8506,880.1997,154.8506,876.1997" style="stroke:#1A1A1A;stroke-width:1.0;"/><line style="stroke:#1A1A1A;stroke-width:1.0;" x1="172.8506" x2="172.8506" y1="730.188" y2="750.188"/><polygon fill="#1A1A1A" points="168.8506,740.188,172.8506,750.188,176.8506,740.188,172.8506,744.188" style="stroke:#1A1A1A;stroke-width:1.0;"/><line style="stroke:#1A1A1A;stroke-width:1.0;" x1="172.8506" x2="172.8506" y1="1072.2231" y2="1092.2231"/><polygon fill="#1A1A1A" points="168.8506,1082.2231,172.8506,1092.2231,176.8506,1082.2231,172.8506,1086.2231" style="stroke:#1A1A1A;stroke-width:1.0;"/><line style="stroke:#1A1A1A;stroke-width:1.0;" x1="754.3939" x2="754.3939" y1="499.3599" y2="519.3599"/><polygon fill="#1A1A1A" points="750.3939,509.3599,754.3939,519.3599,758.3939,509.3599,754.3939,513.3599" style="stroke:#1A1A1A;stroke-width:1.0;"/><line style="stroke:#1A1A1A;stroke-width:1.0;" x1="172.8506" x2="172.8506" y1="180.1177" y2="185.1177"/><line style="stroke:#1A1A1A;stroke-width:1.0;" x1="172.8506" x2="527.1942" y1="185.1177" y2="185.1177"/><line style="stroke:#1A1A1A;stroke-width:1.0;" x1="527.1942" x2="527.1942" y1="185.1177" y2="200.1177"/><polygon fill="#1A1A1A" points="523.1942,190.1177,527.1942,200.1177,531.1942,190.1177,527.1942,194.1177" style="stroke:#1A1A1A;stroke-width:1.0;"/><line style="stroke:#1A1A1A;stroke-width:1.0;" x1="527.1942" x2="527.1942" y1="245.7271" y2="250.7271"/><line style="stroke:#1A1A1A;stroke-width:1.0;" x1="527.1942" x2="172.8506" y1="250.7271" y2="250.7271"/><line style="stroke:#1A1A1A;stroke-width:1.0;" x1="172.8506" x2="172.8506" y1="250.7271" y2="265.7271"/><polygon fill="#1A1A1A" points="168.8506,255.7271,172.8506,265.7271,176.8506,255.7271,172.8506,259.7271" style="stroke:#1A1A1A;stroke-width:1.0;"/><line style="stroke:#1A1A1A;stroke-width:1.0;" x1="136.9412" x2="124.9412" y1="421.7505" y2="421.7505"/><line style="stroke:#1A1A1A;stroke-width:1.0;" x1="124.9412" x2="124.9412" y1="421.7505" y2="439.7505"/><line style="stroke:#1A1A1A;stroke-width:1.0;" x1="124.9412" x2="754.3939" y1="439.7505" y2="439.7505"/><line style="stroke:#1A1A1A;stroke-width:1.0;" x1="754.3939" x2="754.3939" y1="439.7505" y2="453.7505"/><polygon fill="#1A1A1A" points="750.3939,443.7505,754.3939,453.7505,758.3939,443.7505,754.3939,447.7505" style="stroke:#1A1A1A;stroke-width:1.0;"/><line style="stroke:#1A1A1A;stroke-width:1.0;" x1="754.3939" x2="754.3939" y1="564.9692" y2="568.9692"/><line style="stroke:#1A1A1A;stroke-width:1.0;" x1="754.3939" x2="142.8506" y1="568.9692" y2="568.9692"/><line style="stroke:#1A1A1A;stroke-width:1.0;" x1="142.8506" x2="142.8506" y1="568.9692" y2="586.9692"/><line style="stroke:#1A1A1A;stroke-width:1.0;" x1="142.8506" x2="160.8506" y1="586.9692" y2="586.9692"/><polygon fill="#1A1A1A" points="150.8506,582.9692,160.8506,586.9692,150.8506,590.9692,154.8506,586.9692" style="stroke:#1A1A1A;stroke-width:1.0;"/><line style="stroke:#1A1A1A;stroke-width:1.0;" x1="172.8506" x2="172.8506" y1="774.188" y2="786.3892"/><line style="stroke:#1A1A1A;stroke-width:1.0;" x1="172.8506" x2="889.6025" y1="786.3892" y2="786.3892"/><line style="stroke:#1A1A1A;stroke-width:1.0;" x1="889.6025" x2="889.6025" y1="786.3892" y2="798.5903"/><polygon fill="#1A1A1A" points="885.6025,788.5903,889.6025,798.5903,893.6025,788.5903,889.6025,792.5903" style="stroke:#1A1A1A;stroke-width:1.0;"/><line style="stroke:#1A1A1A;stroke-width:1.0;" x1="889.6025" x2="889.6025" y1="844.1997" y2="851.9985"/><line style="stroke:#1A1A1A;stroke-width:1.0;" x1="889.6025" x2="172.8506" y1="851.9985" y2="851.9985"/><line style="stroke:#1A1A1A;stroke-width:1.0;" x1="172.8506" x2="172.8506" y1="851.9985" y2="864.1997"/><polygon fill="#1A1A1A" points="168.8506,854.1997,172.8506,864.1997,176.8506,854.1997,172.8506,858.1997" style="stroke:#1A1A1A;stroke-width:1.0;"/><line style="stroke:#1A1A1A;stroke-width:1.0;" x1="172.8506" x2="172.8506" y1="888.1997" y2="893.1997"/><line style="stroke:#1A1A1A;stroke-width:1.0;" x1="172.8506" x2="1129.9963" y1="893.1997" y2="893.1997"/><line style="stroke:#1A1A1A;stroke-width:1.0;" x1="1129.9963" x2="1129.9963" y1="893.1997" y2="908.1997"/><polygon fill="#1A1A1A" points="1125.9963,898.1997,1129.9963,908.1997,1133.9963,898.1997,1129.9963,902.1997" style="stroke:#1A1A1A;stroke-width:1.0;"/><line style="stroke:#1A1A1A;stroke-width:1.0;" x1="1129.9963" x2="1129.9963" y1="953.8091" y2="958.8091"/><line style="stroke:#1A1A1A;stroke-width:1.0;" x1="1129.9963" x2="527.1942" y1="958.8091" y2="958.8091"/><line style="stroke:#1A1A1A;stroke-width:1.0;" x1="527.1942" x2="527.1942" y1="958.8091" y2="973.8091"/><polygon fill="#1A1A1A" points="523.1942,963.8091,527.1942,973.8091,531.1942,963.8091,527.1942,967.8091" style="stroke:#1A1A1A;stroke-width:1.0;"/><line style="stroke:#1A1A1A;stroke-width:1.0;" x1="527.1942" x2="527.1942" y1="1019.4185" y2="1024.4185"/><line style="stroke:#1A1A1A;stroke-width:1.0;" x1="527.1942" x2="172.8506" y1="1024.4185" y2="1024.4185"/><line style="stroke:#1A1A1A;stroke-width:1.0;" x1="172.8506" x2="172.8506" y1="1024.4185" y2="1039.4185"/><polygon fill="#1A1A1A" points="168.8506,1029.4185,172.8506,1039.4185,176.8506,1029.4185,172.8506,1033.4185" style="stroke:#1A1A1A;stroke-width:1.0;"/><text fill="#000000" font-family="Helvetica" font-size="11" lengthAdjust="spacing" textLength="173.4917" x="137.3719" y="21.3047">Master &#183; scenario_4_volt_var.py</text><text fill="#000000" font-family="Helvetica" font-size="11" lengthAdjust="spacing" textLength="50.6924" x="500.848" y="21.3047">Publisher</text><text fill="#000000" font-family="Helvetica" font-size="11" lengthAdjust="spacing" textLength="162.5884" x="734.1611" y="21.3047">Hardware interface (HIL only)</text><text fill="#000000" font-family="Helvetica" font-size="11" lengthAdjust="spacing" textLength="112.2344" x="1072.8792" y="21.3047">Python sub-modules</text><!--SRC=[hLPTRzis57tNhxZOW5LQ_P4K7LROoBOqILS3I-esGJfW65HQlBAvIgHAKdPKv7_jVRziXv9SEskRzc494ClYvUMvzvvpc0TqcR4MLXbwJ4EwDeKVNWjBpsU_qOHcMdab2lLUU6KqVKTNBAmq6qsnswYo49efDxPCeWTqpLRbYYM9fL3QUN9zulHnkaRQT2tig6eejhLETsiqfZIyAOof4X9Q8jKsFCsCzjOK1NSx0pg0EzczJLC5Y6cAB8ZDrRAsFEYp75jPAsqkWKiKC-tPvYBZaQbOxuU7vy8uJaRH0-pgam_pmcm86xmZrfcHA6p5bYS88VgUJizUaLiYav8toB2e7JjyXi85a4awVqq2oIqxKwpnNUbs9z4zHSH-nVGDa3blwynJNpwPnLyC8D-GyrmbWpxHnOihPDqL4eSAMd0V7x4NHCgHmERXYtdOBcqpHFz3pwX2Yp1DHy3H7pAxc5sDJvxzEfwJQnj9AqIwbNZBP7JHX1I1AyEVI7agr1fjc5rSpaxFGfAmr2TQMA6p5MQJOn0KXh33-u405E_6WeooqQ9KcHkXY-p36o0SUbLoQ0Hrb57xS1T6DlWgV7lw6vM7-aBwDoILguJFLhIned8ZSBi53jJ84DvLcDAYwHE5xPycK3iLll5K2YsMR2TzCMW7c8AWxNnQLiN9-EpYj5sxmL5nLtx87j0FQC7eE4HaJPbQpeoLBau-DEQfyQk-S-XhoNR9xQ32mBQwVSMkBlpeRWPwSN5orX7w5MiPK5PGgw_BWeRUhPSK-9swnntrjc8ULGZeuOUVlJsLpE_R4xctIbV2Yf9Aeqss0Xmcq9ZtLa0Rc8VIE5qKRdz5SYvGnJEqza9WutE6QBpAnATZBjLxfiF3lSNZpAkryirJrCzWVc4iVVla-CcJ7vzz8kfK2Q2KNmYsrcpwnSEd-3sEejjpuS80__dxC_Ps6y40h8ycTrqkrkm7L5cJgu8TdeprWwZdvW2K0XAbMvSTq3ejbHxZhxX9fj54I57vTBitP4eYI45KCEXWG_C1k2GapSSl1zIAOq0Iyva2xhnU5Ch1k6wZYTa3r87SMEKn95EXo6KpQ8aCZx4iokbNrJgH5g8DbiUqyseNjNe56mCpEyIeuxE-5dtaL_5eD4gstkdQAk_wxFdhw25TidQg6-Z9je4OriCGVzfR1-g02SHzftzEWlHmUsc3omxoJoAYs-UuqpR1hDK7ZSV16eA_9RU8cFGA7qjUZxrlZa_E3-YNmyCV7XqSO3aJbSXKEBgjUm2Tr0wwhVESxJJitxFVoPw11dCDhWP_3HzpXCQE6KxxhiQbm_0iiGGLa-dEvIKTjRAQHWm9KToW7yEjYxVbV7biTn5r5u8sGrDXvIMEAglQuw32PBZB6behGI-lJrPGHORCoa6OE5vBbNybI-xuU9n4A5BIEt2QrqS7K4FtDF_37_m9eXmTVUppT7GKnQTTE-XHyl-CjNVeqFkhtma-ZPUvicMxAolmluxRQtodsixMvMVQlstAlF4hUBwh5yFIo1gwHHlkTMneHjQ062flg-vN0ZXNbwMmpNs2ni5HHxi-65SAZFGhPMpPr_Q_LyeKLWPA_0i0]--></g></svg>