<svg xmlns="http://www.w3.org/2000/svg" width="1280" height="1270" viewBox="0 0 1280 1270">
<title>Scenario 4 top-level flow - presentation</title>
<defs>
  <marker id="arrowWhite" markerWidth="6" markerHeight="6" refX="8" refY="4.5" orient="auto" markerUnits="strokeWidth"><path d="M0,0 L9,4.5 L0,9 z" fill="#FFFFFF"/></marker>
  <marker id="arrowDark" markerWidth="6" markerHeight="6" refX="8" refY="4.5" orient="auto" markerUnits="strokeWidth"><path d="M0,0 L9,4.5 L0,9 z" fill="#263238"/></marker>
  <marker id="arrowHil" markerWidth="6" markerHeight="6" refX="8" refY="4.5" orient="auto" markerUnits="strokeWidth"><path d="M0,0 L9,4.5 L0,9 z" fill="#D85A30"/></marker>
  <marker id="arrowDry" markerWidth="6" markerHeight="6" refX="8" refY="4.5" orient="auto" markerUnits="strokeWidth"><path d="M0,0 L9,4.5 L0,9 z" fill="#6B9E26"/></marker>
</defs>
<style>
text { font-family: Helvetica, Arial, sans-serif; }
.node-title { font-weight:700; } .node-sub { font-weight:400; }
.edge { fill:none; stroke:#FFFFFF; stroke-width:3; stroke-linejoin:round; stroke-linecap:round; }
.edge-dark { fill:none; stroke:#263238; stroke-width:3; stroke-linejoin:round; stroke-linecap:round; }
.edge-hil { fill:none; stroke:#D85A30; stroke-width:3.2; stroke-linejoin:round; stroke-linecap:round; }
.edge-dry { fill:none; stroke:#6B9E26; stroke-width:3.2; stroke-linejoin:round; stroke-linecap:round; }
</style>
<rect x="32" y="64" width="420" height="1200" rx="24" fill="#3D8FD9" stroke="none" stroke-width="0"/>
<rect x="464" y="64" width="382" height="1200" rx="24" fill="#1F9D78" stroke="none" stroke-width="0"/>
<rect x="858" y="64" width="390" height="1200" rx="24" fill="#D95B32" stroke="none" stroke-width="0"/>
<text x="242" y="42" text-anchor="middle" fill="#111111" font-size="20" font-weight="700">Master - scenario_4</text>
<text x="655" y="42" text-anchor="middle" fill="#111111" font-size="20" font-weight="700">Sub-modules + publisher</text>
<text x="1053" y="42" text-anchor="middle" fill="#111111" font-size="20" font-weight="700">Hardware (HIL)</text>
<rect x="92" y="96" width="300" height="68" rx="14" fill="#0C447C" stroke="none" stroke-width="0"/>
<text x="242" y="125" text-anchor="middle" class="node-title" font-size="18" fill="white">run_scenario_4()</text>
<text x="242" y="146" text-anchor="middle" class="node-sub" font-size="14" fill="white" opacity="0.86">network, profiles, mode</text>
<path d="M242 164 L242 188" class="edge" marker-end="url(#arrowWhite)"/>
<rect x="92" y="190" width="300" height="72" rx="14" fill="#0C447C" stroke="none" stroke-width="0"/>
<text x="242" y="220" text-anchor="middle" class="node-title" font-size="18" fill="white">adapt_profiles(net)</text>
<text x="242" y="241" text-anchor="middle" class="node-sub" font-size="14" fill="white" opacity="0.86">DER P, load P/Q, times</text>
<path d="M392 226 L510 226" class="edge" marker-end="url(#arrowWhite)"/>
<rect x="510" y="192" width="290" height="68" rx="14" fill="#3C3489" stroke="none" stroke-width="0"/>
<text x="655" y="221" text-anchor="middle" class="node-title" font-size="17" fill="white">on_scenario_start</text>
<text x="655" y="242" text-anchor="middle" class="node-sub" font-size="13" fill="white" opacity="0.86">publisher / checkpoint state</text>
<path d="M655 260 L655 282 L242 282 L242 304" class="edge" marker-end="url(#arrowWhite)"/>
<rect x="92" y="306" width="300" height="66" rx="14" fill="#0C447C" stroke="none" stroke-width="0"/>
<text x="242" y="334" text-anchor="middle" class="node-title" font-size="17" fill="white">Reset network state</text>
<text x="242" y="355" text-anchor="middle" class="node-sub" font-size="13" fill="white" opacity="0.86">drop controllers / reset results</text>
<path d="M242 372 L242 400" class="edge" marker-end="url(#arrowWhite)"/>
<polygon points="241,402.0 307.0,440 241,478.0 175.0,440" fill="#854F0B"/>
<text x="241" y="445" text-anchor="middle" class="node-title" font-size="16" fill="white">dry_run?</text>
<path d="M242 478 L242 520" class="edge-dry" marker-end="url(#arrowDry)"/>
<text x="184" y="490" text-anchor="middle" fill="#E8F6DA" font-size="12" font-weight="700">yes - dry-run</text>
<path d="M308 440 L900 440" class="edge" marker-end="url(#arrowWhite)"/>
<text x="620" y="427" text-anchor="middle" fill="#FFFFFF" font-size="12" font-weight="700">no - HIL</text>
<rect x="900" y="410" width="306" height="66" rx="14" fill="#993C1D" stroke="none" stroke-width="0"/>
<text x="1053" y="438" text-anchor="middle" class="node-title" font-size="16" fill="white">open() @115200</text>
<text x="1053" y="459" text-anchor="middle" class="node-sub" font-size="13" fill="white" opacity="0.86">reset / flush serial buffer</text>
<path d="M1053 476 L1053 536 L258 536" class="edge" marker-end="url(#arrowWhite)"/>
<circle cx="242" cy="536" r="15" fill="#5F5E5A"/>
<path d="M242 552 L242 578" class="edge" marker-end="url(#arrowWhite)"/>
<rect x="92" y="580" width="300" height="72" rx="14" fill="#0C447C" stroke="none" stroke-width="0"/>
<text x="242" y="609" text-anchor="middle" class="node-title" font-size="17" fill="white">VoltVarController(...)</text>
<text x="242" y="630" text-anchor="middle" class="node-sub" font-size="13" fill="white" opacity="0.86">resolve DER idx / buses / MW</text>
<path d="M242 652 L242 703" class="edge-dry" marker-end="url(#arrowDry)"/>
<text x="194" y="681" text-anchor="middle" fill="#E8F6DA" font-size="12" font-weight="700">dry-run</text>
<rect x="92" y="700" width="300" height="68" rx="14" fill="#3B6D11" stroke="none" stroke-width="0"/>
<text x="242" y="729" text-anchor="middle" class="node-title" font-size="16" fill="white">configure() no-op</text>
<text x="242" y="750" text-anchor="middle" class="node-sub" font-size="13" fill="white" opacity="0.86">local Q(V)</text>
<path d="M392 616 L1053 616 L1053 698" class="edge" marker-end="url(#arrowWhite)"/>
<text x="714" y="603" text-anchor="middle" fill="#FFFFFF" font-size="12" font-weight="700">HIL</text>
<rect x="900" y="700" width="306" height="72" rx="14" fill="#993C1D" stroke="none" stroke-width="0"/>
<text x="1053" y="729" text-anchor="middle" class="node-title" font-size="16" fill="white">configure() handshake</text>
<text x="1053" y="750" text-anchor="middle" class="node-sub" font-size="13" fill="white" opacity="0.86">INIT -&gt; CFG -&gt; P   |   ACK each</text>
<circle cx="242" cy="809" r="15" fill="#5F5E5A"/>
<path d="M242 768 L242 793" class="edge-dry" marker-end="url(#arrowDry)"/>
<path d="M1053 772 L1053 809 L258 809" class="edge" marker-end="url(#arrowWhite)"/>
<path d="M242 824 L242 866 L510 866" class="edge" marker-end="url(#arrowWhite)"/>
<rect x="510" y="830" width="290" height="72" rx="14" fill="#0F6E56" stroke="none" stroke-width="0"/>
<text x="655" y="859" text-anchor="middle" class="node-title" font-size="16" fill="white">Coordinator + DER dynamics</text>
<text x="655" y="880" text-anchor="middle" class="node-sub" font-size="12" fill="white" opacity="0.86">SensitivityCoordinator / DERDynamics</text>
<path d="M655 902 L655 943 L392 943" class="edge" marker-end="url(#arrowWhite)"/>
<rect x="92" y="910" width="300" height="66" rx="14" fill="#0C447C" stroke="none" stroke-width="0"/>
<text x="242" y="938" text-anchor="middle" class="node-title" font-size="17" fill="white">dynamics.reset()</text>
<text x="242" y="959" text-anchor="middle" class="node-sub" font-size="13" fill="white" opacity="0.86">seed q_prev / p_prev</text>
<path d="M242 976 L242 1002" class="edge" marker-end="url(#arrowWhite)"/>
<rect x="92" y="1004" width="300" height="72" rx="14" fill="#5F5E5A" stroke="none" stroke-width="0"/>
<text x="242" y="1030" text-anchor="middle" class="node-title" font-size="17" fill="white">Per-timestep loop</text>
<text x="242" y="1051" text-anchor="middle" class="node-sub" font-size="13" fill="white" opacity="0.86">control / PF / curtailment</text>
<text x="242" y="1070" text-anchor="middle" class="node-sub" font-size="13" fill="white" opacity="0.86">see Diagram 2</text>
<rect x="900" y="1000" width="306" height="72" rx="14" fill="#993C1D" stroke="none" stroke-width="0"/>
<text x="1053" y="1016" text-anchor="middle" class="node-title" font-size="16" fill="white">Serial exchange</text>
<text x="1053" y="1037" text-anchor="middle" class="node-sub" font-size="12" fill="white" opacity="0.86">V:&lt;vm&gt; -&gt;   |   &lt;- Q:&lt;q&gt;</text>
<text x="1053" y="1056" text-anchor="middle" class="node-sub" font-size="12" fill="white" opacity="0.86">each HIL timestep</text>
<path d="M392 1028 L900 1028" class="edge" marker-end="url(#arrowWhite)"/>
<text x="646" y="1017" text-anchor="middle" fill="#FFFFFF" font-size="12" font-weight="700">V:&lt;vm&gt;</text>
<path d="M900 1054 L392 1054" class="edge" marker-end="url(#arrowWhite)"/>
<text x="646" y="1070" text-anchor="middle" fill="#FFFFFF" font-size="12" font-weight="700">Q:&lt;q&gt;</text>
<rect x="900" y="1099" width="306" height="64" rx="14" fill="#993C1D" stroke="none" stroke-width="0"/>
<text x="1053" y="1120" text-anchor="middle" class="node-title" font-size="16" fill="white">close() -&gt; TX END</text>
<text x="1053" y="1141" text-anchor="middle" class="node-sub" font-size="12" fill="white" opacity="0.86">firmware clears configured / port closes</text>
<path d="M1053 1072 L1053 1097" class="edge" marker-end="url(#arrowWhite)"/>
<rect x="510" y="1089" width="290" height="70" rx="14" fill="#0F6E56" stroke="none" stroke-width="0"/>
<text x="655" y="1114" text-anchor="middle" class="node-title" font-size="15" fill="white">ScenarioResult.from_records()</text>
<text x="655" y="1135" text-anchor="middle" class="node-sub" font-size="12" fill="white" opacity="0.86">reduce timestep records</text>
<path d="M242 1076 L242 1124 L510 1124" class="edge" marker-end="url(#arrowWhite)"/>
<text x="350" y="1114" text-anchor="middle" fill="#FFFFFF" font-size="12" font-weight="700">dry-run</text>
<path d="M900 1131 L800 1131" class="edge" marker-end="url(#arrowWhite)"/>
<rect x="510" y="1183" width="290" height="62" rx="14" fill="#3C3489" stroke="none" stroke-width="0"/>
<text x="655" y="1204" text-anchor="middle" class="node-title" font-size="17" fill="white">on_scenario_end</text>
<text x="655" y="1225" text-anchor="middle" class="node-sub" font-size="13" fill="white" opacity="0.86">flush summary / final frame</text>
<path d="M655 1159 L655 1181" class="edge" marker-end="url(#arrowWhite)"/>
<rect x="92" y="1183" width="300" height="62" rx="14" fill="#0C447C" stroke="none" stroke-width="0"/>
<text x="242" y="1220" text-anchor="middle" class="node-title" font-size="17" fill="white">return ScenarioResult</text>
<path d="M510 1214 L392 1214" class="edge" marker-end="url(#arrowWhite)"/>
</svg>