<?xml version="1.0" encoding="UTF-8" standalone="no"?>
<!DOCTYPE svg PUBLIC "-//W3C//DTD SVG 1.1//EN"
 "http://www.w3.org/Graphics/SVG/1.1/DTD/svg11.dtd">
<!-- Generated by graphviz version 2.43.0 (0)
 -->
<!-- Title: %3 Pages: 1 -->
<svg width="1253pt" height="527pt"
 viewBox="0.00 0.00 1253.00 527.32" xmlns="http://www.w3.org/2000/svg" xmlns:xlink="http://www.w3.org/1999/xlink">
<g id="graph0" class="graph" transform="scale(1 1) rotate(0) translate(18 509.32)">
<title>%3</title>
<polygon fill="white" stroke="transparent" points="-18,18 -18,-509.32 1235,-509.32 1235,18 -18,18"/>
<text text-anchor="middle" x="608.5" y="-474.52" font-family="Helvetica,sans-Serif" font-weight="bold" font-size="16.00">network_plugin : _build_profiles_for_strategy (strategy dispatch)</text>
<g id="clust1" class="cluster">
<title>cluster_m</title>
<path fill="#e7f0fa" fill-opacity="0.333333" stroke="#8a887f" d="M20,-187.82C20,-187.82 313,-187.82 313,-187.82 319,-187.82 325,-193.82 325,-199.82 325,-199.82 325,-434.82 325,-434.82 325,-440.82 319,-446.82 313,-446.82 313,-446.82 20,-446.82 20,-446.82 14,-446.82 8,-440.82 8,-434.82 8,-434.82 8,-199.82 8,-199.82 8,-193.82 14,-187.82 20,-187.82"/>
<text text-anchor="middle" x="166.5" y="-434.02" font-family="Helvetica,sans-Serif" font-weight="bold" font-size="11.00">_build_profiles_for_strategy &#160;· &#160;network_plugin.py</text>
</g>
<g id="clust2" class="cluster">
<title>cluster_st</title>
<path fill="#edf5e4" fill-opacity="0.333333" stroke="#8a887f" d="M345,-177.32C345,-177.32 1197,-177.32 1197,-177.32 1203,-177.32 1209,-183.32 1209,-189.32 1209,-189.32 1209,-244.32 1209,-244.32 1209,-250.32 1203,-256.32 1197,-256.32 1197,-256.32 345,-256.32 345,-256.32 339,-256.32 333,-250.32 333,-244.32 333,-244.32 333,-189.32 333,-189.32 333,-183.32 339,-177.32 345,-177.32"/>
<text text-anchor="middle" x="771" y="-243.52" font-family="Helvetica,sans-Serif" font-weight="bold" font-size="11.00">Three strategies (only valid keywords)</text>
</g>
<g id="clust3" class="cluster">
<title>cluster_hc</title>
<path fill="#f3f8ec" fill-opacity="0.333333" stroke="#8a887f" d="M631,-378.32C631,-378.32 911,-378.32 911,-378.32 917,-378.32 923,-384.32 923,-390.32 923,-390.32 923,-445.32 923,-445.32 923,-451.32 917,-457.32 911,-457.32 911,-457.32 631,-457.32 631,-457.32 625,-457.32 619,-451.32 619,-445.32 619,-445.32 619,-390.32 619,-390.32 619,-384.32 625,-378.32 631,-378.32"/>
<text text-anchor="middle" x="771" y="-444.52" font-family="Helvetica,sans-Serif" font-weight="bold" font-size="11.00">HC re&#45;benchmark factory</text>
</g>
<g id="clust4" class="cluster">
<title>cluster_note</title>
<path fill="#fcebea" fill-opacity="0.333333" stroke="#8a887f" d="M43,-79.32C43,-79.32 355,-79.32 355,-79.32 361,-79.32 367,-85.32 367,-91.32 367,-91.32 367,-157.32 367,-157.32 367,-163.32 361,-169.32 355,-169.32 355,-169.32 43,-169.32 43,-169.32 37,-169.32 31,-163.32 31,-157.32 31,-157.32 31,-91.32 31,-91.32 31,-85.32 37,-79.32 43,-79.32"/>
<text text-anchor="middle" x="199" y="-156.52" font-family="Helvetica,sans-Serif" font-weight="bold" font-size="11.00">Verified note</text>
</g>
<g id="clust5" class="cluster">
<title>cluster_legend</title>
<path fill="#ffffff" stroke="#8a887f" d="M387,-8C387,-8 421,-8 421,-8 427,-8 433,-14 433,-20 433,-20 433,-128.04 433,-128.04 433,-134.04 427,-140.04 421,-140.04 421,-140.04 387,-140.04 387,-140.04 381,-140.04 375,-134.04 375,-128.04 375,-128.04 375,-20 375,-20 375,-14 381,-8 387,-8"/>
<text text-anchor="middle" x="404" y="-128.04" font-family="Helvetica,sans-Serif" font-weight="bold" font-size="10.00">Legend</text>
</g>
<!-- s0 -->
<g id="node1" class="node">
<title>s0</title>
<path fill="#e7f0fa" stroke="#8a887f" d="M309.67,-418.82C309.67,-418.82 126.33,-418.82 126.33,-418.82 122.67,-418.82 119,-415.15 119,-411.49 119,-411.49 119,-404.15 119,-404.15 119,-400.49 122.67,-396.82 126.33,-396.82 126.33,-396.82 309.67,-396.82 309.67,-396.82 313.33,-396.82 317,-400.49 317,-404.15 317,-404.15 317,-411.49 317,-411.49 317,-415.15 313.33,-418.82 309.67,-418.82"/>
<text text-anchor="middle" x="218" y="-405.32" font-family="Helvetica,sans-Serif" font-size="10.00">_build_profiles_for_strategy(net, cfg)</text>
</g>
<!-- s1 -->
<g id="node2" class="node">
<title>s1</title>
<path fill="#fcf5d6" stroke="#8a887f" d="M292.5,-363.32C292.5,-363.32 147.5,-363.32 147.5,-363.32 141.5,-363.32 135.5,-357.32 135.5,-351.32 135.5,-351.32 135.5,-321.32 135.5,-321.32 135.5,-315.32 141.5,-309.32 147.5,-309.32 147.5,-309.32 292.5,-309.32 292.5,-309.32 298.5,-309.32 304.5,-315.32 304.5,-321.32 304.5,-321.32 304.5,-351.32 304.5,-351.32 304.5,-357.32 298.5,-363.32 292.5,-363.32"/>
<text text-anchor="start" x="144.5" y="-350.32" font-family="Helvetica,sans-Serif" font-size="10.00">strategy == simbench_native</text>
<text text-anchor="start" x="144.5" y="-339.32" font-family="Helvetica,sans-Serif" font-size="10.00">AND no net.profiles metadata?</text>
<text text-anchor="start" x="144.5" y="-328.32" font-family="Helvetica,sans-Serif" font-size="10.00">&#45;&gt; fall back to dwd_pvlib</text>
<text text-anchor="middle" x="220" y="-317.32" font-family="Helvetica,sans-Serif" font-size="10.00">(record requested vs used)</text>
</g>
<!-- s0&#45;&gt;s1 -->
<g id="edge1" class="edge">
<title>s0&#45;&gt;s1</title>
<path fill="none" stroke="#1b1b1a" stroke-width="2" d="M220,-396.65C220,-396.65 220,-370.95 220,-370.95"/>
<polygon fill="#1b1b1a" stroke="#1b1b1a" stroke-width="2" points="222.63,-370.95 220,-363.45 217.38,-370.95 222.63,-370.95"/>
</g>
<!-- mf -->
<g id="node8" class="node">
<title>mf</title>
<path fill="#f3f8ec" stroke="#8a887f" d="M903.5,-429.32C903.5,-429.32 638.5,-429.32 638.5,-429.32 632.5,-429.32 626.5,-423.32 626.5,-417.32 626.5,-417.32 626.5,-398.32 626.5,-398.32 626.5,-392.32 632.5,-386.32 638.5,-386.32 638.5,-386.32 903.5,-386.32 903.5,-386.32 909.5,-386.32 915.5,-392.32 915.5,-398.32 915.5,-398.32 915.5,-417.32 915.5,-417.32 915.5,-423.32 909.5,-429.32 903.5,-429.32"/>
<text text-anchor="start" x="635.5" y="-416.32" font-family="Helvetica,sans-Serif" font-size="10.00">make_profile_factory(yaml)</text>
<text text-anchor="start" x="635.5" y="-405.32" font-family="Helvetica,sans-Serif" font-size="10.00">reuses _build_profiles_for_strategy on stressed net</text>
<text text-anchor="middle" x="771" y="-394.32" font-family="Helvetica,sans-Serif" font-size="10.00">(same strategy + fallback; meta name+&#39;_hc_stressed&#39;)</text>
</g>
<!-- s0&#45;&gt;mf -->
<g id="edge11" class="edge">
<title>s0&#45;&gt;mf</title>
<path fill="none" stroke="#1b1b1a" stroke-width="2" stroke-dasharray="5,2" d="M317.18,-407C317.18,-407 618.86,-407 618.86,-407"/>
<polygon fill="#1b1b1a" stroke="#1b1b1a" stroke-width="2" points="618.86,-409.63 626.36,-407 618.86,-404.38 618.86,-409.63"/>
<text text-anchor="middle" x="437.52" y="-409.2" font-family="Helvetica,sans-Serif" font-size="8.50">HC path reuse</text>
</g>
<!-- s2 -->
<g id="node3" class="node">
<title>s2</title>
<path fill="#fcf5d6" stroke="#8a887f" d="M309.67,-286.32C309.67,-286.32 134.33,-286.32 134.33,-286.32 130.67,-286.32 127,-282.65 127,-278.99 127,-278.99 127,-271.65 127,-271.65 127,-267.99 130.67,-264.32 134.33,-264.32 134.33,-264.32 309.67,-264.32 309.67,-264.32 313.33,-264.32 317,-267.99 317,-271.65 317,-271.65 317,-278.99 317,-278.99 317,-282.65 313.33,-286.32 309.67,-286.32"/>
<text text-anchor="middle" x="222" y="-272.82" font-family="Helvetica,sans-Serif" font-size="10.00">dispatch on strategy (if / elif / else)</text>
</g>
<!-- s1&#45;&gt;s2 -->
<g id="edge2" class="edge">
<title>s1&#45;&gt;s2</title>
<path fill="none" stroke="#1b1b1a" stroke-width="2" d="M220,-309.03C220,-309.03 220,-293.89 220,-293.89"/>
<polygon fill="#1b1b1a" stroke="#1b1b1a" stroke-width="2" points="222.63,-293.89 220,-286.39 217.38,-293.89 222.63,-293.89"/>
</g>
<!-- dp -->
<g id="node6" class="node">
<title>dp</title>
<path fill="#e6f5ef" stroke="#8a887f" d="M872.5,-228.32C872.5,-228.32 623.5,-228.32 623.5,-228.32 617.5,-228.32 611.5,-222.32 611.5,-216.32 611.5,-216.32 611.5,-197.32 611.5,-197.32 611.5,-191.32 617.5,-185.32 623.5,-185.32 623.5,-185.32 872.5,-185.32 872.5,-185.32 878.5,-185.32 884.5,-191.32 884.5,-197.32 884.5,-197.32 884.5,-216.32 884.5,-216.32 884.5,-222.32 878.5,-228.32 872.5,-228.32"/>
<text text-anchor="start" x="620.5" y="-215.32" font-family="Helvetica,sans-Serif" font-size="10.00">dwd_pvlib &#45;&gt; _build_profiles_dwd</text>
<text text-anchor="start" x="620.5" y="-204.32" font-family="Helvetica,sans-Serif" font-size="10.00">build_annual_profiles(data_dir or default,</text>
<text text-anchor="middle" x="748" y="-193.32" font-family="Helvetica,sans-Serif" font-size="10.00">file_map, col_map) &#160;&lt;&#45; custom weather hooks HERE</text>
</g>
<!-- s1&#45;&gt;dp -->
<g id="edge7" class="edge">
<title>s1&#45;&gt;dp</title>
<path fill="none" stroke="#1b1b1a" stroke-width="2" stroke-dasharray="5,2" d="M304.92,-336C423.08,-336 622.75,-336 622.75,-336 622.75,-336 622.75,-235.94 622.75,-235.94"/>
<polygon fill="#1b1b1a" stroke="#1b1b1a" stroke-width="2" points="625.38,-235.94 622.75,-228.44 620.13,-235.94 625.38,-235.94"/>
<text text-anchor="middle" x="496.86" y="-338.2" font-family="Helvetica,sans-Serif" font-size="8.50">fallback</text>
</g>
<!-- s3 -->
<g id="node4" class="node">
<title>s3</title>
<path fill="#e7f0fa" stroke="#8a887f" d="M299.17,-217.82C299.17,-217.82 144.83,-217.82 144.83,-217.82 141.17,-217.82 137.5,-214.15 137.5,-210.49 137.5,-210.49 137.5,-203.15 137.5,-203.15 137.5,-199.49 141.17,-195.82 144.83,-195.82 144.83,-195.82 299.17,-195.82 299.17,-195.82 302.83,-195.82 306.5,-199.49 306.5,-203.15 306.5,-203.15 306.5,-210.49 306.5,-210.49 306.5,-214.15 302.83,-217.82 299.17,-217.82"/>
<text text-anchor="middle" x="222" y="-204.32" font-family="Helvetica,sans-Serif" font-size="10.00">return (profiles, strategy_used)</text>
</g>
<!-- s2&#45;&gt;s3 -->
<g id="edge3" class="edge">
<title>s2&#45;&gt;s3</title>
<path fill="none" stroke="#1b1b1a" stroke-width="2" d="M179.75,-264.31C179.75,-264.31 179.75,-225.53 179.75,-225.53"/>
<polygon fill="#1b1b1a" stroke="#1b1b1a" stroke-width="2" points="182.38,-225.53 179.75,-218.03 177.13,-225.53 182.38,-225.53"/>
</g>
<!-- sn -->
<g id="node5" class="node">
<title>sn</title>
<path fill="#edf5e4" stroke="#8a887f" d="M1188.5,-228.32C1188.5,-228.32 913.5,-228.32 913.5,-228.32 907.5,-228.32 901.5,-222.32 901.5,-216.32 901.5,-216.32 901.5,-197.32 901.5,-197.32 901.5,-191.32 907.5,-185.32 913.5,-185.32 913.5,-185.32 1188.5,-185.32 1188.5,-185.32 1194.5,-185.32 1200.5,-191.32 1200.5,-197.32 1200.5,-197.32 1200.5,-216.32 1200.5,-216.32 1200.5,-222.32 1194.5,-228.32 1188.5,-228.32"/>
<text text-anchor="start" x="910.5" y="-215.32" font-family="Helvetica,sans-Serif" font-size="10.00">simbench_native &#45;&gt; _build_profiles_simbench_native</text>
<text text-anchor="start" x="910.5" y="-204.32" font-family="Helvetica,sans-Serif" font-size="10.00">sb.get_absolute_values(net); rebuild 15&#45;min index (year);</text>
<text text-anchor="middle" x="1051" y="-193.32" font-family="Helvetica,sans-Serif" font-size="10.00">pv_mask incl lv_res; night&#45;zero; clip</text>
</g>
<!-- s2&#45;&gt;sn -->
<g id="edge4" class="edge">
<title>s2&#45;&gt;sn</title>
<path fill="none" stroke="#1b1b1a" stroke-width="2" d="M317.06,-278C506.02,-278 910.83,-278 910.83,-278 910.83,-278 910.83,-236.06 910.83,-236.06"/>
<polygon fill="#1b1b1a" stroke="#1b1b1a" stroke-width="2" points="913.46,-236.06 910.83,-228.56 908.21,-236.06 913.46,-236.06"/>
<text text-anchor="middle" x="598.91" y="-280.2" font-family="Helvetica,sans-Serif" font-size="8.50">simbench_native</text>
</g>
<!-- s2&#45;&gt;dp -->
<g id="edge5" class="edge">
<title>s2&#45;&gt;dp</title>
<path fill="none" stroke="#1b1b1a" stroke-width="2" stroke-dasharray="5,2" d="M317.09,-271C434.54,-271 619,-271 619,-271 619,-271 619,-236.05 619,-236.05"/>
<polygon fill="#1b1b1a" stroke="#1b1b1a" stroke-width="2" points="621.63,-236.05 619,-228.55 616.38,-236.05 621.63,-236.05"/>
<text text-anchor="middle" x="464.02" y="-273.2" font-family="Helvetica,sans-Serif" font-size="8.50">dwd_pvlib</text>
</g>
<!-- fl -->
<g id="node7" class="node">
<title>fl</title>
<path fill="#eeedfe" stroke="#8a887f" d="M582.5,-228.32C582.5,-228.32 353.5,-228.32 353.5,-228.32 347.5,-228.32 341.5,-222.32 341.5,-216.32 341.5,-216.32 341.5,-197.32 341.5,-197.32 341.5,-191.32 347.5,-185.32 353.5,-185.32 353.5,-185.32 582.5,-185.32 582.5,-185.32 588.5,-185.32 594.5,-191.32 594.5,-197.32 594.5,-197.32 594.5,-216.32 594.5,-216.32 594.5,-222.32 588.5,-228.32 582.5,-228.32"/>
<text text-anchor="start" x="350.5" y="-215.32" font-family="Helvetica,sans-Serif" font-size="10.00">flat (else) &#45;&gt; _build_profiles_flat</text>
<text text-anchor="start" x="350.5" y="-204.32" font-family="Helvetica,sans-Serif" font-size="10.00">constant rated: net.load.p_mw / net.sgen.p_mw,</text>
<text text-anchor="middle" x="468" y="-193.32" font-family="Helvetica,sans-Serif" font-size="10.00">full year 15&#45;min</text>
</g>
<!-- s2&#45;&gt;fl -->
<g id="edge6" class="edge">
<title>s2&#45;&gt;fl</title>
<path fill="none" stroke="#1b1b1a" stroke-width="2" stroke-dasharray="5,2" d="M311.75,-264.22C311.75,-248.87 311.75,-223 311.75,-223 311.75,-223 333.64,-223 333.64,-223"/>
<polygon fill="#1b1b1a" stroke="#1b1b1a" stroke-width="2" points="333.64,-225.63 341.14,-223 333.64,-220.38 333.64,-225.63"/>
<text text-anchor="middle" x="288.25" y="-234.87" font-family="Helvetica,sans-Serif" font-size="8.50">else &#45;&gt; flat</text>
</g>
<!-- nc -->
<g id="node9" class="node">
<title>nc</title>
<path fill="#fcebea" stroke="#8a887f" d="M346.5,-141.32C346.5,-141.32 51.5,-141.32 51.5,-141.32 45.5,-141.32 39.5,-135.32 39.5,-129.32 39.5,-129.32 39.5,-99.32 39.5,-99.32 39.5,-93.32 45.5,-87.32 51.5,-87.32 51.5,-87.32 346.5,-87.32 346.5,-87.32 352.5,-87.32 358.5,-93.32 358.5,-99.32 358.5,-99.32 358.5,-129.32 358.5,-129.32 358.5,-135.32 352.5,-141.32 346.5,-141.32"/>
<text text-anchor="start" x="48.5" y="-128.32" font-family="Helvetica,sans-Serif" font-size="10.00">strategy: custom is NOT valid on this path</text>
<text text-anchor="start" x="48.5" y="-117.32" font-family="Helvetica,sans-Serif" font-size="10.00">_load_yaml_config raises ValueError.</text>
<text text-anchor="start" x="48.5" y="-106.32" font-family="Helvetica,sans-Serif" font-size="10.00">For custom weather CSVs use dwd_pvlib + file_map/col_map.</text>
<text text-anchor="middle" x="199" y="-95.32" font-family="Helvetica,sans-Serif" font-size="10.00">(wizard/executor &#39;custom&#39; is a separate code path)</text>
</g>
<!-- s3&#45;&gt;nc -->
<!-- le1 -->
<g id="node10" class="node">
<title>le1</title>
<ellipse fill="#ffffff" stroke="#ffffff" cx="382" cy="-114.32" rx="0.72" ry="0.72"/>
</g>
<!-- s3&#45;&gt;le1 -->
<!-- sn&#45;&gt;s3 -->
<g id="edge8" class="edge">
<title>sn&#45;&gt;s3</title>
<path fill="none" stroke="#1f6fb2" stroke-width="1.25" stroke-dasharray="5,2" d="M906.17,-228.35C906.17,-239.99 906.17,-252 906.17,-252 906.17,-252 222,-252 222,-252 222,-252 222,-224.72 222,-224.72"/>
<polygon fill="#1f6fb2" stroke="#1f6fb2" stroke-width="1.25" points="224.28,-224.72 222,-218.22 219.73,-224.72 224.28,-224.72"/>
<text text-anchor="middle" x="546.77" y="-254.2" font-family="Helvetica,sans-Serif" font-size="8.50" fill="#1f6fb2">profiles</text>
</g>
<!-- dp&#45;&gt;s3 -->
<g id="edge9" class="edge">
<title>dp&#45;&gt;s3</title>
<path fill="none" stroke="#1f6fb2" stroke-width="1.25" stroke-dasharray="5,2" d="M615.25,-228.4C615.25,-234.73 615.25,-240 615.25,-240 615.25,-240 264.25,-240 264.25,-240 264.25,-240 264.25,-224.55 264.25,-224.55"/>
<polygon fill="#1f6fb2" stroke="#1f6fb2" stroke-width="1.25" points="266.53,-224.55 264.25,-218.05 261.98,-224.55 266.53,-224.55"/>
<text text-anchor="middle" x="422.33" y="-242.2" font-family="Helvetica,sans-Serif" font-size="8.50" fill="#1f6fb2">profiles</text>
</g>
<!-- fl&#45;&gt;s3 -->
<g id="edge10" class="edge">
<title>fl&#45;&gt;s3</title>
<path fill="none" stroke="#1f6fb2" stroke-width="1.25" stroke-dasharray="5,2" d="M341.4,-206C341.4,-206 313.14,-206 313.14,-206"/>
<polygon fill="#1f6fb2" stroke="#1f6fb2" stroke-width="1.25" points="313.14,-203.73 306.64,-206 313.14,-208.28 313.14,-203.73"/>
<text text-anchor="middle" x="327.27" y="-199.2" font-family="Helvetica,sans-Serif" font-size="8.50" fill="#1f6fb2">profiles</text>
</g>
<!-- le2 -->
<g id="node11" class="node">
<title>le2</title>
<ellipse fill="#ffffff" stroke="#ffffff" cx="382" cy="-63.6" rx="0.72" ry="0.72"/>
</g>
<!-- le1&#45;&gt;le2 -->
<g id="edge13" class="edge">
<title>le1&#45;&gt;le2</title>
<path fill="none" stroke="#1b1b1a" stroke-width="2" d="M382,-113.44C382,-113.44 382,-71.85 382,-71.85"/>
<polygon fill="#1b1b1a" stroke="#1b1b1a" stroke-width="2" points="384.63,-71.85 382,-64.35 379.38,-71.85 384.63,-71.85"/>
<text text-anchor="middle" x="402.5" y="-94.85" font-family="Helvetica,sans-Serif" font-size="8.50">execution</text>
</g>
<!-- ld1 -->
<g id="node12" class="node">
<title>ld1</title>
<ellipse fill="#ffffff" stroke="#ffffff" cx="382" cy="-39.16" rx="0.72" ry="0.72"/>
</g>
<!-- le2&#45;&gt;ld1 -->
<!-- ld2 -->
<g id="node13" class="node">
<title>ld2</title>
<ellipse fill="#ffffff" stroke="#ffffff" cx="382" cy="-14.72" rx="0.72" ry="0.72"/>
</g>
<!-- ld1&#45;&gt;ld2 -->
<g id="edge14" class="edge">
<title>ld1&#45;&gt;ld2</title>
<path fill="none" stroke="#1f6fb2" stroke-width="1.25" stroke-dasharray="5,2" d="M382,-38.11C382,-38.11 382,-22.03 382,-22.03"/>
<polygon fill="#1f6fb2" stroke="#1f6fb2" stroke-width="1.25" points="384.28,-22.03 382,-15.53 379.73,-22.03 384.28,-22.03"/>
<text text-anchor="middle" x="351" y="-23.27" font-family="Helvetica,sans-Serif" font-size="8.50" fill="#1f6fb2">data (array/df)</text>
</g>
</g>
</svg>
